<svg version="1.1" viewBox="0.0 0.0 954.7270341207349 402.9133858267717" fill="none" stroke="none" stroke-linecap="square" stroke-miterlimit="10" xmlns:xlink="http://www.w3.org/1999/xlink" xmlns="http://www.w3.org/2000/svg"><clipPath id="p.0"><path d="m0 0l954.72705 0l0 402.9134l-954.72705 0l0 -402.9134z" clip-rule="nonzero"/></clipPath><g clip-path="url(#p.0)"><path fill="#000000" fill-opacity="0.0" d="m0 0l954.72705 0l0 402.9134l-954.72705 0z" fill-rule="evenodd"/><path fill="#000000" fill-opacity="0.0" d="m97.17475 330.961l0 0c84.67124 -58.395294 196.8562 -57.473633 280.55658 2.3049316l-141.9203 198.71307z" fill-rule="evenodd"/><path fill="#000000" fill-opacity="0.0" d="m97.17475 330.961l0 0c84.67124 -58.395294 196.8562 -57.473633 280.55658 2.3049316" fill-rule="evenodd"/><path stroke="#000000" stroke-width="3.0" stroke-linejoin="round" stroke-linecap="butt" d="m97.17475 330.961l0 0c84.67124 -58.395294 196.8562 -57.473633 280.55658 2.3049316" fill-rule="evenodd"/><path fill="#000000" fill-opacity="0.0" d="m637.3517 332.94275c2.4507446 -2.376587 7.574646 -10.397583 14.704468 -14.259644c7.129822 -3.8620605 20.424805 -4.530792 28.074524 -8.91275c7.649658 -4.3819275 12.77356 -14.482361 17.823608 -17.378815c5.05011 -2.8964844 7.8721313 3.7131653 12.476746 0c4.6046753 -3.7131958 10.546509 -19.159912 15.151123 -22.279114c4.6046143 -3.1191711 8.763245 5.420746 12.476746 3.5639954c3.713501 -1.8567505 4.3081055 -17.155212 9.804199 -14.704468c5.4960938 2.4507446 17.528015 24.433014 23.172363 29.408936c5.644409 4.9759216 6.980652 0.075042725 10.693848 0.44665527c3.7131958 0.37158203 6.3863525 6.1035156E-4 11.585266 1.782898c5.1989746 1.7823181 10.770386 8.836792 19.608398 8.910919c8.838013 0.0741272 25.770203 -10.248718 33.419556 -8.466095c7.649414 1.7825928 5.940918 14.854248 12.476746 19.161743c6.5358276 4.307495 20.72229 2.5984192 26.73822 6.683197c6.015991 4.084778 7.7979736 14.854553 9.357544 17.82547" fill-rule="evenodd"/><path stroke="#000000" stroke-width="3.0" stroke-linejoin="round" stroke-linecap="butt" d="m637.3517 332.94275c2.4507446 -2.376587 7.574646 -10.397583 14.704468 -14.259644c7.129822 -3.8620605 20.424805 -4.530792 28.074524 -8.91275c7.649658 -4.3819275 12.77356 -14.482361 17.823608 -17.378815c5.05011 -2.8964844 7.8721313 3.7131653 12.476746 0c4.6046753 -3.7131958 10.546509 -19.159912 15.151123 -22.279114c4.6046143 -3.1191711 8.763245 5.420746 12.476746 3.5639954c3.713501 -1.8567505 4.3081055 -17.155212 9.804199 -14.704468c5.4960938 2.4507446 17.528015 24.433014 23.172363 29.408936c5.644409 4.9759216 6.980652 0.075042725 10.693848 0.44665527c3.7131958 0.37158203 6.3863525 6.1035156E-4 11.585266 1.782898c5.1989746 1.7823181 10.770386 8.836792 19.608398 8.910919c8.838013 0.0741272 25.770203 -10.248718 33.419556 -8.466095c7.649414 1.7825928 5.940918 14.854248 12.476746 19.161743c6.5358276 4.307495 20.72229 2.5984192 26.73822 6.683197c6.015991 4.084778 7.7979736 14.854553 9.357544 17.82547" fill-rule="evenodd"/><path fill="#ffffff" d="m43.524933 130.20735l184.53543 0l0 45.795273l-184.53543 0z" fill-rule="evenodd"/><path stroke="#000000" stroke-width="2.0" stroke-linejoin="round" stroke-linecap="butt" d="m43.524933 130.20735l184.53543 0l0 45.795273l-184.53543 0z" fill-rule="evenodd"/><path fill="#000000" d="m60.468422 162.79999q-1.09375 0 -2.078125 -0.28125q-0.96875 -0.265625 -1.765625 -0.828125q-0.15625 -0.125 -0.28125 -0.265625q-0.125 -0.140625 -0.203125 -0.3125q-0.203125 -0.640625 -0.28125 -1.5625q-0.078125 -0.921875 -0.046875 -1.78125q0 -0.1875 0.125 -0.25q0.140625 -0.078125 0.34375 -0.078125q0.203125 0 0.3125 0.0625q0.125 0.0625 0.171875 0.234375q0.5625 1.90625 1.625 2.96875q1.0625 1.0625 2.40625 1.0625q0.828125 0 1.40625 -0.375q0.59375 -0.390625 0.890625 -1.0q0.3125 -0.609375 0.3125 -1.3125q0 -0.890625 -0.328125 -1.46875q-0.3125 -0.578125 -0.953125 -1.046875q-0.625 -0.46875 -1.578125 -1.0q-1.046875 -0.609375 -2.03125 -1.28125q-0.984375 -0.671875 -1.625 -1.59375q-0.625 -0.921875 -0.625 -2.296875q0 -1.421875 0.71875 -2.5q0.71875 -1.078125 2.015625 -1.671875q1.296875 -0.609375 2.984375 -0.609375q0.9375 0 1.75 0.203125q0.8125 0.203125 1.296875 0.40625q0.28125 0.09375 0.40625 0.25q0.140625 0.140625 0.21875 0.484375q0.15625 0.53125 0.265625 1.265625q0.125 0.734375 0.125 1.53125q0 0.3125 -0.46875 0.3125q-0.203125 0 -0.40625 -0.09375q-0.203125 -0.109375 -0.25 -0.28125q-0.453125 -1.46875 -1.25 -2.234375q-0.796875 -0.765625 -1.96875 -0.765625q-0.78125 0 -1.34375 0.265625q-0.546875 0.265625 -0.875 0.8125q-0.328125 0.546875 -0.328125 1.40625q0 0.65625 0.4375 1.21875q0.4375 0.5625 1.234375 1.09375q0.796875 0.53125 1.796875 1.15625q1.203125 0.71875 2.03125 1.4375q0.828125 0.71875 1.25 1.59375q0.4375 0.875 0.4375 2.0625q0 1.671875 -0.734375 2.796875q-0.734375 1.125 -2.0625 1.703125q-1.3125 0.5625 -3.078125 0.5625zm7.89946 -0.296875q-0.171875 0 -0.34375 -0.078125q-0.15625 -0.078125 -0.15625 -0.25q0 -0.203125 0.171875 -0.296875q0.171875 -0.109375 0.40625 -0.1875q0.359375 -0.125 0.6875 -0.28125q0.328125 -0.171875 0.328125 -0.6875l0 -5.671875q0 -0.578125 -0.15625 -1.015625q-0.15625 -0.453125 -0.703125 -0.53125q-0.109375 -0.015625 -0.1875 -0.109375q-0.078125 -0.09375 -0.078125 -0.3125q0 -0.3125 0.234375 -0.375q0.65625 -0.15625 1.25 -0.359375q0.59375 -0.203125 1.140625 -0.453125q0.546875 -0.265625 1.0 -0.515625q0.078125 -0.046875 0.15625 -0.09375q0.078125 -0.046875 0.15625 -0.046875q0.203125 0 0.203125 0.25q0 0.203125 -0.0625 0.703125q-0.0625 0.484375 -0.0625 0.84375q0 0.25 0.046875 0.296875l0.046875 0q0.703125 -0.6875 1.625 -1.1875q0.9375 -0.515625 2.203125 -0.515625q0.8125 0 1.453125 0.5q0.640625 0.5 1.0 1.375l0.109375 0q0.75 -0.859375 1.734375 -1.359375q1.0 -0.515625 2.1875 -0.515625q0.8125 0 1.40625 0.46875q0.609375 0.46875 0.96875 1.28125q0.359375 0.8125 0.359375 1.859375l0 5.515625q0 0.5 0.296875 0.65625q0.3125 0.15625 0.6875 0.28125q0.234375 0.078125 0.390625 0.1875q0.171875 0.09375 0.171875 0.296875q0 0.15625 -0.125 0.25q-0.125 0.078125 -0.359375 0.078125q-0.5 0 -0.90625 -0.046875q-0.390625 -0.03125 -0.75 -0.046875q-0.34375 -0.03125 -0.796875 -0.03125q-0.4375 0 -0.78125 0.03125q-0.34375 0.015625 -0.703125 0.046875q-0.34375 0.046875 -0.84375 0.046875q-0.203125 0 -0.34375 -0.078125q-0.125 -0.09375 -0.125 -0.25q0 -0.203125 0.15625 -0.296875q0.15625 -0.109375 0.375 -0.1875q0.359375 -0.09375 0.578125 -0.265625q0.234375 -0.171875 0.234375 -0.59375l0 -5.21875q0 -0.640625 -0.203125 -1.109375q-0.203125 -0.484375 -0.578125 -0.765625q-0.359375 -0.296875 -0.8125 -0.296875q-0.421875 0 -0.875 0.140625q-0.4375 0.125 -0.84375 0.453125q-0.484375 0.40625 -0.484375 1.328125l0 5.390625q0 0.5 0.265625 0.671875q0.265625 0.171875 0.65625 0.265625q0.203125 0.078125 0.359375 0.1875q0.171875 0.09375 0.171875 0.296875q0 0.15625 -0.140625 0.25q-0.140625 0.078125 -0.328125 0.078125q-0.5 0 -0.875 -0.046875q-0.359375 -0.03125 -0.6875 -0.046875q-0.328125 -0.03125 -0.78125 -0.03125q-0.4375 0 -0.78125 0.03125q-0.34375 0.015625 -0.71875 0.046875q-0.359375 0.046875 -0.859375 0.046875q-0.171875 0 -0.3125 -0.078125q-0.140625 -0.09375 -0.140625 -0.25q0 -0.203125 0.15625 -0.296875q0.171875 -0.109375 0.375 -0.1875q0.34375 -0.09375 0.578125 -0.265625q0.25 -0.171875 0.25 -0.59375l0 -5.21875q0 -0.640625 -0.203125 -1.109375q-0.203125 -0.484375 -0.578125 -0.765625q-0.359375 -0.296875 -0.8125 -0.296875q-0.421875 0 -0.859375 0.140625q-0.4375 0.125 -0.890625 0.453125q-0.421875 0.34375 -0.421875 1.265625l0 5.453125q0 0.453125 0.203125 0.640625q0.21875 0.171875 0.609375 0.296875q0.203125 0.078125 0.359375 0.1875q0.171875 0.09375 0.171875 0.296875q0 0.15625 -0.140625 0.25q-0.125 0.078125 -0.328125 0.078125q-0.5 0 -0.859375 -0.046875q-0.34375 -0.03125 -0.6875 -0.046875q-0.328125 -0.03125 -0.78125 -0.03125q-0.421875 0 -0.796875 0.03125q-0.359375 0.015625 -0.75 0.046875q-0.390625 0.046875 -0.90625 0.046875zm25.108414 0.28125q-1.5 0 -2.6875 -0.671875q-1.1875 -0.671875 -1.90625 -1.859375q-0.703125 -1.203125 -0.703125 -2.6875q0 -1.171875 0.453125 -2.234375q0.453125 -1.0625 1.234375 -1.890625q0.796875 -0.84375 1.859375 -1.328125q1.0625 -0.5 2.28125 -0.5q1.53125 0 2.765625 0.71875q1.234375 0.71875 1.96875 1.921875q0.734375 1.1875 0.734375 2.59375q0 1.578125 -0.671875 2.9375q-0.671875 1.34375 -2.0 2.171875q-1.328125 0.828125 -3.328125 0.828125zm0.5 -1.0q0.640625 0 1.125 -0.25q0.5 -0.25 0.796875 -0.78125q0.3125 -0.53125 0.421875 -1.40625q0.109375 -0.875 0.109375 -1.890625q0 -1.34375 -0.359375 -2.421875q-0.34375 -1.09375 -0.984375 -1.75q-0.625 -0.65625 -1.484375 -0.65625q-0.484375 0 -0.875 0.171875q-0.390625 0.15625 -0.71875 0.53125q-0.46875 0.53125 -0.640625 1.453125q-0.15625 0.921875 -0.15625 2.140625q0 1.21875 0.359375 2.34375q0.375 1.109375 1.0 1.8125q0.625 0.703125 1.40625 0.703125zm12.164078 1.0q-1.5 0 -2.6875 -0.671875q-1.1875 -0.671875 -1.90625 -1.859375q-0.703125 -1.203125 -0.703125 -2.6875q0 -1.171875 0.453125 -2.234375q0.453125 -1.0625 1.234375 -1.890625q0.796875 -0.84375 1.859375 -1.328125q1.0625 -0.5 2.28125 -0.5q1.53125 0 2.765625 0.71875q1.234375 0.71875 1.96875 1.921875q0.734375 1.1875 0.734375 2.59375q0 1.578125 -0.671875 2.9375q-0.671875 1.34375 -2.0 2.171875q-1.328125 0.828125 -3.328125 0.828125zm0.5 -1.0q0.640625 0 1.125 -0.25q0.5 -0.25 0.796875 -0.78125q0.3125 -0.53125 0.421875 -1.40625q0.109375 -0.875 0.109375 -1.890625q0 -1.34375 -0.359375 -2.421875q-0.34375 -1.09375 -0.984375 -1.75q-0.625 -0.65625 -1.484375 -0.65625q-0.484375 0 -0.875 0.171875q-0.390625 0.15625 -0.71875 0.53125q-0.46875 0.53125 -0.640625 1.453125q-0.15625 0.921875 -0.15625 2.140625q0 1.21875 0.359375 2.34375q0.375 1.109375 1.0 1.8125q0.625 0.703125 1.40625 0.703125zm11.349915 1.0q-1.515625 0 -2.3125 -0.8125q-0.78125 -0.8125 -0.78125 -2.359375l0 -5.84375q0 -0.203125 -0.171875 -0.296875q-0.15625 -0.109375 -0.640625 -0.140625l-0.28125 0q-0.140625 0 -0.25 -0.234375q-0.09375 -0.25 -0.09375 -0.46875q0 -0.0625 0.03125 -0.140625q0.03125 -0.09375 0.109375 -0.125q0.59375 -0.25 1.1875 -0.6875q0.609375 -0.4375 1.140625 -0.90625q0.546875 -0.46875 0.890625 -0.8125q0.1875 -0.125 0.296875 -0.21875q0.109375 -0.109375 0.265625 -0.109375q0.203125 0 0.3125 0.09375q0.109375 0.09375 0.0625 0.34375l-0.15625 1.390625q-0.015625 0.3125 0.140625 0.421875q0.171875 0.09375 0.46875 0.09375l3.0 0q0.078125 0 0.140625 0.171875q0.078125 0.171875 0.078125 0.359375q0 0.328125 -0.09375 0.609375q-0.078125 0.265625 -0.203125 0.265625l-2.40625 0q-0.578125 0 -0.796875 0.140625q-0.21875 0.125 -0.21875 0.515625l0 4.875q0 1.109375 0.421875 1.6875q0.4375 0.5625 1.21875 0.5625q0.71875 0 1.078125 -0.125q0.375 -0.125 0.671875 -0.3125q0.078125 -0.046875 0.125 -0.046875q0.125 0 0.1875 0.15625q0.0625 0.15625 0.0625 0.328125q0 0.125 -0.5 0.53125q-0.484375 0.40625 -1.28125 0.75q-0.796875 0.34375 -1.703125 0.34375zm4.632126 -0.28125q-0.5 0 -0.5 -0.328125q0 -0.28125 0.578125 -0.484375q0.375 -0.125 0.6875 -0.28125q0.328125 -0.171875 0.328125 -0.703125l0 -12.34375q0 -0.671875 -0.203125 -1.171875q-0.1875 -0.515625 -0.84375 -0.640625q-0.25 -0.0625 -0.25 -0.390625q0 -0.28125 0.234375 -0.34375q0.5 -0.125 1.171875 -0.34375q0.671875 -0.21875 1.3125 -0.453125q0.65625 -0.25 1.0625 -0.375q0.171875 -0.078125 0.25 -0.078125q0.140625 0 0.1875 0.078125q0.0625 0.078125 0.0625 0.171875q0 0.15625 -0.0625 0.421875q-0.046875 0.25 -0.078125 0.6875q-0.03125 0.4375 -0.03125 1.203125l0 5.390625q0 0.3125 0.015625 0.5q0.03125 0.1875 0.125 0.28125q0.390625 -0.296875 0.9375 -0.6875q0.5625076 -0.390625 1.2656326 -0.6875q0.71875 -0.296875 1.546875 -0.296875q1.328125 0 2.1875 0.96875q0.875 0.96875 0.875 2.578125l0 5.453125q0 0.53125 0.296875 0.734375q0.3125 0.203125 0.671875 0.328125q0.28125 0.09375 0.421875 0.203125q0.140625 0.09375 0.140625 0.28125q0 0.328125 -0.53125 0.328125q-0.59375 0 -0.9375 -0.046875q-0.328125 -0.03125 -0.640625 -0.046875q-0.296875 -0.03125 -0.828125 -0.03125q-0.515625 0 -0.8125 0.03125q-0.28125 0.015625 -0.59375 0.046875q-0.296875 0.046875 -0.875 0.046875q-0.5625 0 -0.5625 -0.359375q0 -0.171875 0.15625 -0.265625q0.15625 -0.109375 0.375 -0.1875q0.359375 -0.09375 0.625 -0.328125q0.28125 -0.234375 0.28125 -0.765625l0 -5.03125q0 -0.59375 -0.28125 -1.0625q-0.265625 -0.46875 -0.6875 -0.734375q-0.421875 -0.28125 -0.890625 -0.28125q-0.40625 0 -0.9218826 0.125q-0.5 0.125 -0.90625 0.421875q-0.28125 0.203125 -0.375 0.453125q-0.078125 0.234375 -0.078125 0.765625l0 5.421875q0.015625 0.515625 0.28125 0.703125q0.265625 0.1875 0.59375 0.3125q0.265625 0.078125 0.390625 0.1875q0.140625 0.09375 0.140625 0.265625q0 0.359375 -0.453125 0.359375q-0.5 0 -0.890625 -0.046875q-0.375 -0.03125 -0.71875 -0.046875q-0.34375 -0.03125 -0.796875 -0.03125q-0.421875 0 -0.796875 0.03125q-0.359375 0.015625 -0.765625 0.046875q-0.390625 0.046875 -0.890625 0.046875zm23.987068 0.296875q-1.09375 0 -2.078125 -0.28125q-0.96875 -0.265625 -1.765625 -0.828125q-0.15625 -0.125 -0.28125 -0.265625q-0.125 -0.140625 -0.203125 -0.3125q-0.203125 -0.640625 -0.28125 -1.5625q-0.078125 -0.921875 -0.046875 -1.78125q0 -0.1875 0.125 -0.25q0.140625 -0.078125 0.34375 -0.078125q0.203125 0 0.3125 0.0625q0.125 0.0625 0.171875 0.234375q0.5625 1.90625 1.625 2.96875q1.0625 1.0625 2.40625 1.0625q0.828125 0 1.40625 -0.375q0.59375 -0.390625 0.890625 -1.0q0.3125 -0.609375 0.3125 -1.3125q0 -0.890625 -0.328125 -1.46875q-0.3125 -0.578125 -0.953125 -1.046875q-0.625 -0.46875 -1.578125 -1.0q-1.046875 -0.609375 -2.03125 -1.28125q-0.984375 -0.671875 -1.625 -1.59375q-0.625 -0.921875 -0.625 -2.296875q0 -1.421875 0.71875 -2.5q0.71875 -1.078125 2.015625 -1.671875q1.296875 -0.609375 2.984375 -0.609375q0.9375 0 1.75 0.203125q0.8125 0.203125 1.296875 0.40625q0.28125 0.09375 0.40625 0.25q0.140625 0.140625 0.21875 0.484375q0.15625 0.53125 0.265625 1.265625q0.125 0.734375 0.125 1.53125q0 0.3125 -0.46875 0.3125q-0.203125 0 -0.40625 -0.09375q-0.203125 -0.109375 -0.25 -0.28125q-0.453125 -1.46875 -1.25 -2.234375q-0.796875 -0.765625 -1.96875 -0.765625q-0.78125 0 -1.34375 0.265625q-0.546875 0.265625 -0.875 0.8125q-0.328125 0.546875 -0.328125 1.40625q0 0.65625 0.4375 1.21875q0.4375 0.5625 1.234375 1.09375q0.796875 0.53125 1.796875 1.15625q1.203125 0.71875 2.03125 1.4375q0.828125 0.71875 1.25 1.59375q0.4375 0.875 0.4375 2.0625q0 1.671875 -0.734375 2.796875q-0.734375 1.125 -2.0625 1.703125q-1.3125 0.5625 -3.078125 0.5625zm15.77446 0.125q-0.203125 0 -0.203125 -0.21875q0 -0.28125 0.0625 -0.78125q0.0625 -0.515625 0.0625 -0.8125q0 -0.078125 -0.015625 -0.140625q0 -0.0625 0 -0.09375q-0.796875 0.859375 -1.84375 1.390625q-1.046875 0.53125 -2.21875 0.53125q-0.8125 0 -1.453125 -0.421875q-0.640625 -0.4375 -1.015625 -1.1875q-0.359375 -0.765625 -0.359375 -1.78125l0 -4.859375q0 -0.578125 -0.234375 -0.921875q-0.21875 -0.34375 -0.8125 -0.53125q-0.140625 -0.015625 -0.265625 -0.109375q-0.109375 -0.109375 -0.109375 -0.3125q0 -0.203125 0.109375 -0.296875q0.125 -0.109375 0.265625 -0.140625q1.015625 -0.046875 1.75 -0.1875q0.734375 -0.140625 1.578125 -0.34375q0.09375 -0.046875 0.1875 -0.0625q0.109375 -0.03125 0.21875 -0.03125q0.328125 0 0.296875 0.359375q-0.078125 0.578125 -0.125 0.96875q-0.046875 0.390625 -0.046875 0.96875l0 4.890625q0 0.609375 0.21875 1.09375q0.234375 0.484375 0.640625 0.765625q0.40625 0.265625 0.890625 0.296875q0.46875 0 0.890625 -0.09375q0.421875 -0.109375 0.828125 -0.46875q0.203125 -0.140625 0.453125 -0.5625q0.25 -0.421875 0.25 -1.109375l0 -4.25q0 -0.484375 -0.21875 -0.765625q-0.203125 -0.296875 -0.546875 -0.453125q-0.34375 -0.15625 -0.703125 -0.15625q-0.28125 -0.015625 -0.4375 -0.109375q-0.140625 -0.109375 -0.140625 -0.421875q0 -0.25 0.171875 -0.34375q0.1875 -0.109375 0.40625 -0.109375q1.125 -0.078125 1.796875 -0.125q0.6875 -0.046875 1.15625 -0.125q0.46875 -0.078125 0.921875 -0.203125q0.078125 -0.03125 0.15625 -0.03125q0.09375 -0.015625 0.15625 -0.015625q0.34375 0 0.34375 0.28125q0 0.078125 -0.015625 0.171875q0 0.078125 -0.0625 0.171875q-0.015625 0.078125 -0.0625 0.4375q-0.03125 0.359375 -0.078125 0.734375q-0.03125 0.375 -0.03125 0.578125l0 5.875q0 0.609375 0.140625 0.84375q0.140625 0.21875 0.3125 0.21875q0.15625 0 0.4375 0q0.296875 -0.015625 0.421875 -0.015625q0.203125 0 0.328125 0.109375q0.140625 0.09375 0.140625 0.3125q0 0.234375 -0.09375 0.34375q-0.09375 0.109375 -0.3125 0.140625q-1.140625 0.109375 -2.03125 0.40625q-0.890625 0.28125 -1.546875 0.5625q-0.15625 0.046875 -0.328125 0.09375q-0.15625 0.046875 -0.28125 0.046875zm5.925064 -0.421875q-0.203125 0 -0.359375 -0.078125q-0.140625 -0.09375 -0.140625 -0.25q0 -0.203125 0.15625 -0.296875q0.171875 -0.109375 0.421875 -0.1875q0.53125 -0.15625 0.75 -0.359375q0.21875 -0.21875 0.21875 -0.609375l0 -5.6875q0 -0.59375 -0.171875 -0.984375q-0.15625 -0.390625 -0.6875 -0.515625q-0.109375 -0.046875 -0.21875 -0.140625q-0.09375 -0.09375 -0.09375 -0.265625q0 -0.328125 0.28125 -0.40625q0.765625 -0.203125 1.640625 -0.546875q0.890625 -0.34375 1.4999847 -0.671875q0.125 -0.078125 0.28125 -0.140625q0.15625 -0.078125 0.21875 -0.078125q0.203125 0 0.203125 0.25q0 0.09375 -0.015625 0.453125q0 0.359375 -0.015625 0.78125q-0.015625 0.40625 -0.03125 0.734375q0 0.15625 0.0625 0.15625q0.40625 -0.53125 0.90625 -0.984375q0.515625 -0.453125 1.078125 -0.75q0.578125 -0.3125 1.15625 -0.3125q0.734375 0 1.09375 0.3125q0.375 0.296875 0.375 0.75q0 0.359375 -0.1875 0.765625q-0.1875 0.390625 -0.484375 0.6875q-0.28125 0.296875 -0.640625 0.296875q-0.203125 0 -0.4375 -0.09375q-0.21875 -0.09375 -0.453125 -0.21875q-0.21875 -0.09375 -0.46875 -0.1875q-0.234375 -0.109375 -0.4375 -0.109375q-0.625 0 -1.140625 0.46875q-0.5 0.46875 -0.5 1.828125l0 4.46875q0 0.453125 0.328125 0.703125q0.328125 0.234375 1.015625 0.4375q0.265625 0.0625 0.40625 0.15625q0.140625 0.09375 0.140625 0.296875q0 0.328125 -0.453125 0.328125q-0.765625 0 -1.4375 -0.0625q-0.65623474 -0.0625 -1.3281097 -0.0625q-0.421875 0 -0.8125 0.03125q-0.390625 0.015625 -0.796875 0.046875q-0.40625 0.046875 -0.921875 0.046875zm9.780441 0q-0.203125 0 -0.359375 -0.078125q-0.140625 -0.09375 -0.140625 -0.25q0 -0.203125 0.125 -0.296875q0.140625 -0.109375 0.375 -0.15625q0.65625 -0.203125 0.875 -0.40625q0.21875 -0.203125 0.21875 -0.65625l0 -7.171875q-0.25 0 -0.59375 -0.015625q-0.328125 -0.015625 -0.734375 -0.03125q-0.125 -0.03125 -0.234375 -0.25q-0.109375 -0.234375 -0.109375 -0.421875q0 -0.0625 0.078125 -0.109375q0.078125 -0.0625 0.125 -0.09375q0.375 -0.171875 0.71875 -0.3125q0.34375 -0.15625 0.75 -0.34375q0.046875 -2.09375 0.65625 -3.515625q0.625 -1.421875 1.5625 -2.265625q0.9375 -0.84375 1.984375 -1.203125q1.0625 -0.375 1.96875 -0.375q1.625 0 2.375 0.46875q0.75 0.46875 0.75 1.34375q0 0.5625 -0.265625 0.875q-0.25 0.3125 -0.671875 0.3125q-0.234375 0 -0.453125 -0.1875q-0.203125 -0.1875 -0.46875 -0.484375q-0.40625 -0.40625 -0.953125 -0.8125q-0.53125 -0.40625 -1.375 -0.40625q-1.0625 0 -1.6875 0.9375q-0.609375 0.9375 -0.609375 2.90625l0 2.15625q0 0.171875 0.09375 0.25q0.109375 0.0625 0.25 0.0625l2.96875 0q0.171875 0 0.265625 0.109375q0.109375 0.109375 0.109375 0.265625q0 0.203125 -0.046875 0.453125q-0.046875 0.234375 -0.15625 0.375q-0.09375 0.203125 -0.203125 0.203125l-2.53125 0q-0.453125 0 -0.609375 0.125q-0.140625 0.109375 -0.140625 0.390625l0 6.484375q0 0.609375 0.296875 0.875q0.3125 0.265625 1.34375 0.4375q0.53125 0.09375 0.53125 0.453125q0 0.15625 -0.125 0.265625q-0.125 0.09375 -0.328125 0.09375q-0.765625 0 -1.609375 -0.0625q-0.828125 -0.0625 -1.484375 -0.0625q-0.421875 0 -0.8125 0.03125q-0.375 0.015625 -0.796875 0.046875q-0.40625 0.046875 -0.921875 0.046875zm10.366272 0.28125q-0.609375 0 -1.15625 -0.328125q-0.546875 -0.328125 -0.875 -0.859375q-0.328125 -0.546875 -0.328125 -1.09375q0 -0.859375 0.5 -1.40625q0.515625 -0.546875 1.53125 -0.984375l2.34375 -1.0q0.515625 -0.203125 0.625 -0.375q0.109375 -0.1875 0.109375 -0.671875l0.0625 -1.5q0.015625 -0.703125 -0.296875 -1.125q-0.3125 -0.4375 -0.953125 -0.4375q-0.328125 0 -0.6875 0.125q-0.34375 0.125 -0.546875 0.328125q-0.109375 0.109375 -0.15625 0.28125q-0.03125 0.15625 -0.03125 0.296875q0 0.140625 0.015625 0.328125q0.015625 0.1875 0.015625 0.34375q0 0.140625 -0.390625 0.375q-0.375 0.21875 -0.859375 0.40625q-0.46875 0.171875 -0.796875 0.171875q-0.1875 0 -0.296875 -0.125q-0.09375 -0.125 -0.09375 -0.296875q0 -0.40625 0.265625 -0.828125q0.265625 -0.421875 0.859375 -0.90625q0.625 -0.53125 1.375 -0.9375q0.765625 -0.421875 1.484375 -0.671875q0.734375 -0.265625 1.265625 -0.265625q1.21875 0 1.953125 0.8125q0.734375 0.796875 0.703125 2.078125l-0.125 5.421875q-0.03125 0.5625 0.203125 0.9375q0.25 0.375 0.609375 0.375q0.53125 0 0.859375 -0.296875q0.09375 -0.109375 0.171875 -0.109375q0.125 0 0.21875 0.09375q0.09375 0.09375 0.09375 0.21875q0 0.28125 -0.40625 0.6875q-0.453125 0.453125 -0.984375 0.6875q-0.515625 0.25 -1.015625 0.25q-1.34375 0 -2.1875 -1.390625l-0.0625 0q-0.84375 0.734375 -1.546875 1.0625q-0.6875 0.328125 -1.46875 0.328125zm1.390625 -1.53125q0.34375 0 0.59375 -0.109375q0.265625 -0.109375 0.4375 -0.3125q0.109375 -0.125 0.171875 -0.296875q0.0625 -0.1875 0.078125 -0.515625l0.0625 -1.625q0.015625 -0.25 -0.0625 -0.328125q-0.0625 -0.09375 -0.171875 -0.09375q-0.046875 0 -0.15625 0.015625q-0.09375 0 -0.21875 0.078125q-0.9375 0.390625 -1.34375 0.828125q-0.40625 0.421875 -0.40625 1.09375q0 0.6875 0.328125 0.984375q0.328125 0.28125 0.6875 0.28125zm11.576965 1.53125q-1.328125 0 -2.390625 -0.6875q-1.0625 -0.6875 -1.6875 -1.890625q-0.609375 -1.203125 -0.609375 -2.6875q0 -1.65625 0.75 -2.984375q0.765625 -1.328125 2.015625 -2.109375q1.265625 -0.796875 2.796875 -0.796875q1.9375 0 3.25 1.21875q0.25 0.234375 0.25 0.453125q0 0.1875 -0.203125 0.46875q-0.203125 0.265625 -0.484375 0.46875q-0.28125 0.203125 -0.46875 0.203125q-0.203125 0 -0.390625 -0.125q-0.171875 -0.125 -0.34375 -0.28125q-0.640625 -0.5 -1.328125 -0.84375q-0.6875 -0.359375 -1.15625 -0.359375q-1.046875 0 -1.625 0.90625q-0.578125 0.90625 -0.578125 2.734375q0 1.234375 0.421875 2.15625q0.4375 0.90625 1.21875 1.421875q0.78125 0.5 1.828125 0.5q0.75 0 1.296875 -0.234375q0.546875 -0.25 1.15625 -0.78125q0.09375 -0.078125 0.1875 -0.140625q0.09375 -0.0625 0.1875 -0.0625q0.28125 0 0.28125 0.40625q0 0.109375 -0.046875 0.296875q-0.046875 0.1875 -0.203125 0.421875q-0.28125 0.5 -0.90625 1.0625q-0.609375 0.546875 -1.421875 0.90625q-0.8125 0.359375 -1.796875 0.359375zm10.156555 0q-1.40625 0 -2.46875 -0.703125q-1.0625 -0.71875 -1.671875 -1.96875q-0.59375 -1.265625 -0.59375 -2.859375q0 -1.546875 0.71875 -2.8125q0.71875 -1.28125 1.9375 -2.046875q1.21875 -0.765625 2.65625 -0.765625q1.0625 0 1.890625 0.453125q0.84375 0.4375 1.328125 1.21875q0.5 0.765625 0.5 1.734375q0 0.90625 -0.78125 0.90625l-5.140625 0q-0.359375 0 -0.53125 0.1875q-0.15625 0.1875 -0.15625 0.703125q0 1.0625 0.46875 1.921875q0.46875 0.859375 1.25 1.375q0.796875 0.5 1.796875 0.5q0.734375 0 1.359375 -0.28125q0.625 -0.296875 1.1875 -0.8125q0.09375 -0.078125 0.171875 -0.140625q0.078125 -0.0625 0.15625 -0.0625q0.25 0 0.25 0.3125q0 0.34375 -0.3125 0.859375q-0.296875 0.578125 -0.875 1.109375q-0.5625 0.53125 -1.375 0.84375q-0.8125 0.328125 -1.765625 0.328125zm-1.625 -7.828125l1.796875 0q0.65625 0 0.984375 -0.015625q0.328125 -0.03125 0.640625 -0.109375q0.125 -0.03125 0.171875 -0.21875q0.046875 -0.1875 0.046875 -0.4375q0 -0.6875 -0.515625 -1.15625q-0.515625 -0.46875 -1.28125 -0.46875q-0.53125 0 -1.046875 0.3125q-0.5 0.3125 -0.828125 0.796875q-0.328125 0.484375 -0.296875 0.984375q0 0.3125 0.328125 0.3125z" fill-rule="nonzero"/><path fill="#ffffff" d="m367.15353 61.4412l0 0c0 -7.004448 5.6782227 -12.682671 12.682678 -12.682671l179.51657 0c3.3636475 0 6.5895386 1.3362045 8.967957 3.7146683c2.378479 2.37846 3.7147217 5.604347 3.7147217 8.968002l0 50.72915c0 7.004448 -5.6782227 12.682671 -12.682678 12.682671l-179.51657 0l0 0c-7.0044556 0 -12.682678 -5.6782227 -12.682678 -12.682671z" fill-rule="evenodd"/><path stroke="#000000" stroke-width="2.0" stroke-linejoin="round" stroke-linecap="butt" d="m367.15353 61.4412l0 0c0 -7.004448 5.6782227 -12.682671 12.682678 -12.682671l179.51657 0c3.3636475 0 6.5895386 1.3362045 8.967957 3.7146683c2.378479 2.37846 3.7147217 5.604347 3.7147217 8.968002l0 50.72915c0 7.004448 -5.6782227 12.682671 -12.682678 12.682671l-179.51657 0l0 0c-7.0044556 0 -12.682678 -5.6782227 -12.682678 -12.682671z" fill-rule="evenodd"/><path fill="#000000" d="m409.2826 81.297646q-0.671875 0 -1.640625 -0.046875q-0.96875 -0.046875 -1.9375 -0.09375q-0.96875 -0.03125 -1.609375 -0.03125q-0.5 0 -1.03125 0.015625q-0.515625 0.015625 -1.078125 0.046875q-0.546875 0.03125 -1.1875 0.03125q-0.21875 0 -0.40625 -0.09375q-0.171875 -0.078125 -0.171875 -0.25q0 -0.234375 0.15625 -0.328125q0.171875 -0.109375 0.5 -0.15625q0.96875 -0.203125 1.3125 -0.546875q0.359375 -0.359375 0.359375 -1.203125l0 -11.453125q0 -0.859375 -0.34375 -1.203125q-0.34375 -0.359375 -1.328125 -0.5625q-0.328125 -0.046875 -0.5 -0.15625q-0.15625 -0.125 -0.15625 -0.34375q0 -0.1875 0.171875 -0.265625q0.1875 -0.09375 0.40625 -0.09375q0.609375 0 1.171875 0.015625q0.5625 0 1.09375 0.046875q0.546875 0.03125 1.109375 0.03125q0.375 0 1.015625 -0.03125q0.65625 -0.046875 1.40625 -0.078125q0.75 -0.03125 1.40625 -0.0625q0.65625 -0.046875 1.0625 -0.046875q2.125 0 3.8125 0.609375q1.703125 0.609375 2.90625 1.703125q1.203125 1.078125 1.828125 2.578125q0.640625 1.484375 0.640625 3.234375q0 1.75 -0.640625 3.328125q-0.625 1.5625 -1.8125 2.78125q-1.171875 1.21875 -2.828125 1.921875q-1.65625 0.703125 -3.6875 0.703125zm-0.375 -1.15625q1.828125 0 3.09375 -0.875q1.28125 -0.875 1.9375 -2.453125q0.671875 -1.59375 0.671875 -3.671875q0 -1.71875 -0.453125 -3.125q-0.4375 -1.40625 -1.234375 -2.375q-0.796875 -0.984375 -1.90625 -1.515625q-1.09375 -0.53125 -2.390625 -0.53125q-0.90625 0 -1.53125 0.0625q-0.625 0.046875 -0.9375 0.296875q-0.3125 0.234375 -0.3125 0.78125l0 11.15625q0 0.875 0.390625 1.375q0.390625 0.484375 1.078125 0.6875q0.703125 0.1875 1.59375 0.1875zm11.096954 1.0625q-0.203125 0 -0.328125 -0.078125q-0.125 -0.09375 -0.125 -0.25q0 -0.203125 0.140625 -0.296875q0.15625 -0.109375 0.359375 -0.15625q0.609375 -0.15625 0.875 -0.328125q0.265625 -0.1875 0.265625 -0.609375l0 -5.5q0 -0.8125 -0.25 -1.21875q-0.25 -0.40625 -0.859375 -0.5q-0.125 -0.03125 -0.203125 -0.140625q-0.078125 -0.125 -0.078125 -0.265625q0 -0.359375 0.28125 -0.390625q1.21875 -0.25 2.109375 -0.6875q0.90625 -0.453125 1.375 -0.703125q0.359375 -0.171875 0.46875 -0.171875q0.265625 0 0.265625 0.25q-0.015625 0.359375 -0.09375 0.984375q-0.078125 0.609375 -0.140625 1.3125q-0.0625 0.6875 -0.0625 1.296875l0 5.703125q0 0.375 0.28125 0.578125q0.28125 0.203125 0.890625 0.390625q0.1875 0.0625 0.34375 0.15625q0.15625 0.09375 0.15625 0.296875q0 0.296875 -0.4375 0.296875q-0.46875 0 -0.921875 -0.03125q-0.4375 -0.015625 -0.859375 -0.03125q-0.421875 -0.03125 -0.875 -0.03125q-0.421875 0 -0.828125 0.03125q-0.40625 0.015625 -0.828125 0.046875q-0.421875 0.046875 -0.921875 0.046875zm2.53125 -12.765625q-0.734375 0 -1.25 -0.5q-0.5 -0.515625 -0.5 -1.21875q0 -0.796875 0.5 -1.296875q0.515625 -0.5 1.25 -0.5q0.75 0 1.25 0.5q0.515625 0.5 0.515625 1.296875q0 0.703125 -0.515625 1.21875q-0.5 0.5 -1.25 0.5zm7.519684 13.046875q-0.8125 0 -1.5625 -0.21875q-0.734375 -0.21875 -1.34375 -0.640625q-0.1875 -0.359375 -0.28125 -1.109375q-0.078125 -0.765625 -0.078125 -1.5q0 -0.3125 0.4375 -0.3125q0.171875 0 0.296875 0.109375q0.125 0.09375 0.171875 0.21875q0.4375 1.125 1.09375 1.796875q0.65625 0.65625 1.5 0.65625q0.703125 0 1.109375 -0.4375q0.40625 -0.4375 0.40625 -1.03125q0 -0.671875 -0.5 -1.125q-0.484375 -0.46875 -1.34375 -0.9375q-0.796875 -0.4375 -1.421875 -0.921875q-0.609375 -0.484375 -0.96875 -1.09375q-0.34375 -0.625 -0.34375 -1.46875q0 -0.9375 0.46875 -1.640625q0.484375 -0.703125 1.359375 -1.109375q0.875 -0.40625 2.015625 -0.40625q0.8125 0 1.453125 0.1875q0.65625 0.171875 0.90625 0.34375q0.203125 0.25 0.328125 0.921875q0.125 0.671875 0.125 1.40625q0 0.234375 -0.375 0.234375q-0.1875 0 -0.359375 -0.09375q-0.171875 -0.109375 -0.234375 -0.21875q-0.328125 -0.9375 -0.84375 -1.40625q-0.5 -0.484375 -1.15625 -0.484375q-0.578125 0 -1.046875 0.375q-0.46875 0.359375 -0.46875 1.015625q0 0.53125 0.4375 0.96875q0.453125 0.421875 1.28125 0.875q1.59375 0.859375 2.296875 1.640625q0.71875 0.765625 0.71875 2.0625q0 1.546875 -1.0625 2.453125q-1.0625 0.890625 -3.015625 0.890625zm5.7516785 6.4843826q-0.15625 0 -0.328125 -0.078125q-0.171875 -0.078125 -0.171875 -0.25q0 -0.203125 0.171875 -0.3125q0.171875 -0.09375 0.40625 -0.171875q0.484375 -0.15625 0.75 -0.34375q0.265625 -0.1875 0.265625 -0.625l0 -12.375008q0 -0.265625 -0.140625 -0.59375q-0.125 -0.34375 -0.359375 -0.640625q-0.234375 -0.296875 -0.625 -0.34375q-0.125 -0.046875 -0.1875 -0.140625q-0.0625 -0.09375 -0.0625 -0.296875q0 -0.171875 0.0625 -0.25q0.0625 -0.09375 0.171875 -0.125q0.90625 -0.203125 1.8125 -0.515625q0.921875 -0.3125 1.609375 -0.625q0.0625 -0.015625 0.140625 -0.078125q0.078125 -0.078125 0.15625 -0.078125q0.125 0 0.15625 0.09375q0.046875 0.09375 0.046875 0.21875q0 0.203125 -0.0625 0.671875q-0.0625 0.46875 -0.0625 0.796875q0 0.25 0.046875 0.28125q0.25 -0.25 0.890625 -0.671875q0.65625 -0.421875 1.5 -0.75q0.859375 -0.328125 1.640625 -0.328125q1.34375 0 2.28125 0.71875q0.953125 0.71875 1.453125 1.859375q0.515625 1.125 0.515625 2.328125q0 1.171875 -0.453125 2.28125q-0.4375 1.09375 -1.25 1.984375q-0.796875 0.875 -1.859375 1.421875q-1.046875 0.53125 -2.265625 0.53125q-0.296875 0 -0.71875 -0.09375q-0.421875 -0.09375 -0.84375 -0.234375q-0.40625 -0.140625 -0.71875 -0.3125q-0.015625 0 -0.046875 0.140625q-0.015625 0.140625 -0.03125 0.3125q-0.015625 0.1875 -0.015625 0.28125l0 4.3750076q0 0.34375 0.203125 0.546875q0.203125 0.21875 0.5 0.34375q0.3125 0.125 0.6875 0.234375q0.25 0.078125 0.40625 0.171875q0.15625 0.109375 0.15625 0.3125q0 0.140625 -0.15625 0.234375q-0.15625 0.09375 -0.296875 0.09375q-0.765625 0 -1.484375 -0.0625q-0.71875 -0.0625 -1.390625 -0.0625q-0.421875 0 -0.8125 0.015625q-0.375 0.03125 -0.78125 0.0625q-0.40625 0.046875 -0.90625 0.046875zm6.328125 -7.4843826q0.3125 0 0.765625 -0.203125q0.453125 -0.21875 0.890625 -0.703125q0.453125 -0.484375 0.734375 -1.3125q0.296875 -0.84375 0.296875 -2.046875q0 -1.40625 -0.3125 -2.25q-0.296875 -0.84375 -0.75 -1.265625q-0.453125 -0.4375 -0.921875 -0.578125q-0.46875 -0.140625 -0.828125 -0.140625q-0.5 0 -1.03125 0.21875q-0.53125 0.203125 -0.890625 0.5q-0.359375 0.296875 -0.359375 0.5q0 0.34375 0 0.921875q0 0.5625 -0.015625 1.21875q0 0.640625 -0.015625 1.171875q-0.015625 0.53125 -0.015625 0.765625q0 0.734375 0.328125 1.484375q0.328125 0.734375 0.875 1.234375q0.5625 0.484375 1.25 0.484375zm6.9690857 0.71875q-0.203125 0 -0.359375 -0.078125q-0.140625 -0.078125 -0.140625 -0.234375q0 -0.203125 0.15625 -0.296875q0.171875 -0.109375 0.421875 -0.203125q0.375 -0.125 0.6875 -0.28125q0.328125 -0.15625 0.328125 -0.6875l0 -12.359375q0 -0.703125 -0.21875 -1.1875q-0.21875 -0.5 -0.84375 -0.625q-0.265625 -0.0625 -0.265625 -0.390625q0 -0.296875 0.234375 -0.34375q0.640625 -0.125 1.296875 -0.359375q0.671875 -0.23437119 1.265625 -0.4531212q0.609375 -0.234375 1.015625 -0.359375q0.171875 -0.078125 0.25 -0.078125q0.125 0 0.171875 0.09375q0.046875 0.09375 0.046875 0.15625q0 0.203125 -0.078125 0.7812462q-0.0625 0.5625 -0.0625 1.53125l0 13.578125q0 0.53125 0.296875 0.6875q0.3125 0.140625 0.6875 0.265625q0.25 0.109375 0.40625 0.21875q0.171875 0.09375 0.171875 0.296875q0 0.15625 -0.15625 0.234375q-0.140625 0.0625 -0.34375 0.0625q-0.484375 0 -0.890625 -0.046875q-0.40625 -0.03125 -0.796875 -0.03125q-0.390625 -0.015625 -0.84375 -0.015625q-0.4375 0 -0.8125 0.03125q-0.359375 0.015625 -0.75 0.046875q-0.375 0.046875 -0.875 0.046875zm9.072968 0.28125q-0.609375 0 -1.15625 -0.328125q-0.546875 -0.328125 -0.875 -0.859375q-0.328125 -0.546875 -0.328125 -1.09375q0 -0.859375 0.5 -1.40625q0.515625 -0.546875 1.53125 -0.984375l2.34375 -1.0q0.515625 -0.203125 0.625 -0.375q0.109375 -0.1875 0.109375 -0.671875l0.0625 -1.5q0.015625 -0.703125 -0.296875 -1.125q-0.3125 -0.4375 -0.953125 -0.4375q-0.328125 0 -0.6875 0.125q-0.34375 0.125 -0.546875 0.328125q-0.109375 0.109375 -0.15625 0.28125q-0.03125 0.15625 -0.03125 0.296875q0 0.140625 0.015625 0.328125q0.015625 0.1875 0.015625 0.34375q0 0.140625 -0.390625 0.375q-0.375 0.21875 -0.859375 0.40625q-0.46875 0.171875 -0.796875 0.171875q-0.1875 0 -0.296875 -0.125q-0.09375 -0.125 -0.09375 -0.296875q0 -0.40625 0.265625 -0.828125q0.265625 -0.421875 0.859375 -0.90625q0.625 -0.53125 1.375 -0.9375q0.765625 -0.421875 1.484375 -0.671875q0.734375 -0.265625 1.265625 -0.265625q1.21875 0 1.953125 0.8125q0.734375 0.796875 0.703125 2.078125l-0.125 5.421875q-0.03125 0.5625 0.203125 0.9375q0.25 0.375 0.609375 0.375q0.53125 0 0.859375 -0.296875q0.09375 -0.109375 0.171875 -0.109375q0.125 0 0.21875 0.09375q0.09375 0.09375 0.09375 0.21875q0 0.28125 -0.40625 0.6875q-0.453125 0.453125 -0.984375 0.6875q-0.515625 0.25 -1.015625 0.25q-1.34375 0 -2.1875 -1.390625l-0.0625 0q-0.84375 0.734375 -1.546875 1.0625q-0.6875 0.328125 -1.46875 0.328125zm1.390625 -1.53125q0.34375 0 0.59375 -0.109375q0.265625 -0.109375 0.4375 -0.3125q0.109375 -0.125 0.171875 -0.296875q0.0625 -0.1875 0.078125 -0.515625l0.0625 -1.625q0.015625 -0.25 -0.0625 -0.328125q-0.0625 -0.09375 -0.171875 -0.09375q-0.046875 0 -0.15625 0.015625q-0.09375 0 -0.21875 0.078125q-0.9375 0.390625 -1.34375 0.828125q-0.40625 0.421875 -0.40625 1.09375q0 0.6875 0.328125 0.984375q0.328125 0.28125 0.6875 0.28125zm11.576965 1.53125q-1.328125 0 -2.390625 -0.6875q-1.0625 -0.6875 -1.6875 -1.890625q-0.609375 -1.203125 -0.609375 -2.6875q0 -1.65625 0.75 -2.984375q0.765625 -1.328125 2.015625 -2.109375q1.265625 -0.796875 2.796875 -0.796875q1.9375 0 3.25 1.21875q0.25 0.234375 0.25 0.453125q0 0.1875 -0.203125 0.46875q-0.203125 0.265625 -0.484375 0.46875q-0.28125 0.203125 -0.46875 0.203125q-0.203125 0 -0.390625 -0.125q-0.171875 -0.125 -0.34375 -0.28125q-0.640625 -0.5 -1.328125 -0.84375q-0.6875 -0.359375 -1.15625 -0.359375q-1.046875 0 -1.625 0.90625q-0.578125 0.90625 -0.578125 2.734375q0 1.234375 0.421875 2.15625q0.4375 0.90625 1.21875 1.421875q0.78125 0.5 1.828125 0.5q0.75 0 1.296875 -0.234375q0.546875 -0.25 1.15625 -0.78125q0.09375 -0.078125 0.1875 -0.140625q0.09375 -0.0625 0.1875 -0.0625q0.28125 0 0.28125 0.40625q0 0.109375 -0.046875 0.296875q-0.046875 0.1875 -0.203125 0.421875q-0.28125 0.5 -0.90625 1.0625q-0.609375 0.546875 -1.421875 0.90625q-0.8125 0.359375 -1.796875 0.359375zm10.156555 0q-1.40625 0 -2.46875 -0.703125q-1.0625 -0.71875 -1.671875 -1.96875q-0.59375 -1.265625 -0.59375 -2.859375q0 -1.546875 0.71875 -2.8125q0.71875 -1.28125 1.9375 -2.046875q1.21875 -0.765625 2.65625 -0.765625q1.0625 0 1.890625 0.453125q0.84375 0.4375 1.328125 1.21875q0.5 0.765625 0.5 1.734375q0 0.90625 -0.78125 0.90625l-5.140625 0q-0.359375 0 -0.53125 0.1875q-0.15625 0.1875 -0.15625 0.703125q0 1.0625 0.46875 1.921875q0.46875 0.859375 1.25 1.375q0.796875 0.5 1.796875 0.5q0.734375 0 1.359375 -0.28125q0.625 -0.296875 1.1875 -0.8125q0.09375 -0.078125 0.171875 -0.140625q0.078125 -0.0625 0.15625 -0.0625q0.25 0 0.25 0.3125q0 0.34375 -0.3125 0.859375q-0.296875 0.578125 -0.875 1.109375q-0.5625 0.53125 -1.375 0.84375q-0.8125 0.328125 -1.765625 0.328125zm-1.625 -7.828125l1.796875 0q0.65625 0 0.984375 -0.015625q0.328125 -0.03125 0.640625 -0.109375q0.125 -0.03125 0.171875 -0.21875q0.046875 -0.1875 0.046875 -0.4375q0 -0.6875 -0.515625 -1.15625q-0.515625 -0.46875 -1.28125 -0.46875q-0.53125 0 -1.046875 0.3125q-0.5 0.3125 -0.828125 0.796875q-0.328125 0.484375 -0.296875 0.984375q0 0.3125 0.328125 0.3125zm7.646393 7.546875q-0.171875 0 -0.34375 -0.078125q-0.15625 -0.078125 -0.15625 -0.25q0 -0.203125 0.171875 -0.296875q0.171875 -0.109375 0.40625 -0.1875q0.359375 -0.125 0.6875 -0.28125q0.328125 -0.171875 0.328125 -0.6875l0 -5.671875q0 -0.578125 -0.15625 -1.015625q-0.15625 -0.453125 -0.703125 -0.53125q-0.109375 -0.015625 -0.1875 -0.109375q-0.078125 -0.09375 -0.078125 -0.3125q0 -0.3125 0.234375 -0.375q0.65625 -0.15625 1.25 -0.359375q0.59375 -0.203125 1.140625 -0.453125q0.546875 -0.265625 1.0 -0.515625q0.078125 -0.046875 0.15625 -0.09375q0.078125 -0.046875 0.15625 -0.046875q0.203125 0 0.203125 0.25q0 0.203125 -0.0625 0.703125q-0.0625 0.484375 -0.0625 0.84375q0 0.25 0.046875 0.296875l0.046875 0q0.703125 -0.6875 1.625 -1.1875q0.9375 -0.515625 2.203125 -0.515625q0.8125 0 1.453125 0.5q0.640625 0.5 1.0 1.375l0.109375 0q0.75 -0.859375 1.734375 -1.359375q1.0 -0.515625 2.1875 -0.515625q0.8125 0 1.40625 0.46875q0.609375 0.46875 0.96875 1.28125q0.359375 0.8125 0.359375 1.859375l0 5.515625q0 0.5 0.296875 0.65625q0.3125 0.15625 0.6875 0.28125q0.234375 0.078125 0.390625 0.1875q0.171875 0.09375 0.171875 0.296875q0 0.15625 -0.125 0.25q-0.125 0.078125 -0.359375 0.078125q-0.5 0 -0.90625 -0.046875q-0.390625 -0.03125 -0.75 -0.046875q-0.34375 -0.03125 -0.796875 -0.03125q-0.4375 0 -0.78125 0.03125q-0.34375 0.015625 -0.703125 0.046875q-0.34375 0.046875 -0.84375 0.046875q-0.203125 0 -0.34375 -0.078125q-0.125 -0.09375 -0.125 -0.25q0 -0.203125 0.15625 -0.296875q0.15625 -0.109375 0.375 -0.1875q0.359375 -0.09375 0.578125 -0.265625q0.234375 -0.171875 0.234375 -0.59375l0 -5.21875q0 -0.640625 -0.203125 -1.109375q-0.203125 -0.484375 -0.578125 -0.765625q-0.359375 -0.296875 -0.8125 -0.296875q-0.421875 0 -0.875 0.140625q-0.4375 0.125 -0.84375 0.453125q-0.484375 0.40625 -0.484375 1.328125l0 5.390625q0 0.5 0.265625 0.671875q0.265625 0.171875 0.65625 0.265625q0.203125 0.078125 0.359375 0.1875q0.171875 0.09375 0.171875 0.296875q0 0.15625 -0.140625 0.25q-0.140625 0.078125 -0.328125 0.078125q-0.5 0 -0.875 -0.046875q-0.359375 -0.03125 -0.6875 -0.046875q-0.328125 -0.03125 -0.78125 -0.03125q-0.4375 0 -0.78125 0.03125q-0.34375 0.015625 -0.71875 0.046875q-0.359375 0.046875 -0.859375 0.046875q-0.171875 0 -0.3125 -0.078125q-0.140625 -0.09375 -0.140625 -0.25q0 -0.203125 0.15625 -0.296875q0.171875 -0.109375 0.375 -0.1875q0.34375 -0.09375 0.578125 -0.265625q0.25 -0.171875 0.25 -0.59375l0 -5.21875q0 -0.640625 -0.203125 -1.109375q-0.203125 -0.484375 -0.578125 -0.765625q-0.359375 -0.296875 -0.8125 -0.296875q-0.421875 0 -0.859375 0.140625q-0.4375 0.125 -0.890625 0.453125q-0.421875 0.34375 -0.421875 1.265625l0 5.453125q0 0.453125 0.203125 0.640625q0.21875 0.171875 0.609375 0.296875q0.203125 0.078125 0.359375 0.1875q0.171875 0.09375 0.171875 0.296875q0 0.15625 -0.140625 0.25q-0.125 0.078125 -0.328125 0.078125q-0.5 0 -0.859375 -0.046875q-0.34375 -0.03125 -0.6875 -0.046875q-0.328125 -0.03125 -0.78125 -0.03125q-0.421875 0 -0.796875 0.03125q-0.359375 0.015625 -0.75 0.046875q-0.390625 0.046875 -0.90625 0.046875zm24.499054 0.28125q-1.40625 0 -2.46875 -0.703125q-1.0625 -0.71875 -1.671875 -1.96875q-0.59375 -1.265625 -0.59375 -2.859375q0 -1.546875 0.71875 -2.8125q0.71875 -1.28125 1.9375 -2.046875q1.21875 -0.765625 2.6562805 -0.765625q1.0625 0 1.890625 0.453125q0.84375 0.4375 1.328125 1.21875q0.5 0.765625 0.5 1.734375q0 0.90625 -0.78125 0.90625l-5.1406555 0q-0.359375 0 -0.53125 0.1875q-0.15625 0.1875 -0.15625 0.703125q0 1.0625 0.46875 1.921875q0.46875 0.859375 1.25 1.375q0.7969055 0.5 1.7969055 0.5q0.734375 0 1.359375 -0.28125q0.625 -0.296875 1.1875 -0.8125q0.09375 -0.078125 0.171875 -0.140625q0.078125 -0.0625 0.15625 -0.0625q0.25 0 0.25 0.3125q0 0.34375 -0.3125 0.859375q-0.296875 0.578125 -0.875 1.109375q-0.5625 0.53125 -1.375 0.84375q-0.8125 0.328125 -1.7656555 0.328125zm-1.625 -7.828125l1.796875 0q0.6562805 0 0.9844055 -0.015625q0.328125 -0.03125 0.640625 -0.109375q0.125 -0.03125 0.171875 -0.21875q0.046875 -0.1875 0.046875 -0.4375q0 -0.6875 -0.515625 -1.15625q-0.515625 -0.46875 -1.28125 -0.46875q-0.5312805 0 -1.0469055 0.3125q-0.5 0.3125 -0.828125 0.796875q-0.328125 0.484375 -0.296875 0.984375q0 0.3125 0.328125 0.3125zm7.646393 7.546875q-0.203125 0 -0.359375 -0.078125q-0.140625 -0.09375 -0.140625 -0.25q0 -0.203125 0.15625 -0.296875q0.171875 -0.109375 0.421875 -0.1875q0.375 -0.09375 0.6875 -0.265625q0.328125 -0.1875 0.328125 -0.703125l0 -5.671875q0 -0.578125 -0.171875 -0.984375q-0.15625 -0.421875 -0.6875 -0.5625q-0.109375 -0.046875 -0.1875 -0.125q-0.078125 -0.09375 -0.078125 -0.296875q0 -0.328125 0.234375 -0.375q0.890625 -0.203125 1.765625 -0.546875q0.875 -0.34375 1.53125 -0.734375q0.09375 -0.046875 0.1875 -0.109375q0.109375 -0.078125 0.21875 -0.078125q0.125 0 0.15625 0.09375q0.046875 0.078125 0.046875 0.171875q0 0.1875 -0.0625 0.671875q-0.0625 0.46875 -0.0625 0.828125q0 0.09375 0 0.21875q0.015625 0.109375 0.046875 0.140625q0.859375 -0.8125 1.78125 -1.265625q0.921875 -0.46875 2.09375 -0.46875q1.296875 0 2.15625 1.0q0.875 0.984375 0.875 2.609375l0 5.515625q0 0.5 0.296875 0.65625q0.3125 0.15625 0.703125 0.28125q0.203125 0.078125 0.375 0.1875q0.171875 0.109375 0.171875 0.3125q0 0.15625 -0.171875 0.234375q-0.15625 0.078125 -0.3125 0.078125q-0.5 0 -0.890625 -0.046875q-0.375 -0.03125 -0.75 -0.046875q-0.359375 -0.03125 -0.8125 -0.03125q-0.421875 0 -0.8125 0.03125q-0.375 0.015625 -0.765625 0.046875q-0.390625 0.046875 -0.90625 0.046875q-0.125 0 -0.28125 -0.078125q-0.140625 -0.078125 -0.140625 -0.234375q0 -0.203125 0.140625 -0.3125q0.15625 -0.109375 0.359375 -0.1875q0.390625 -0.125 0.671875 -0.28125q0.296875 -0.15625 0.296875 -0.65625l0 -5.140625q0 -1.015625 -0.5 -1.59375q-0.484375 -0.578125 -1.328125 -0.578125q-0.6875 0 -1.203125 0.203125q-0.5 0.1875 -0.96875 0.578125q-0.109375 0.078125 -0.15625 0.21875q-0.046875 0.125 -0.046875 0.28125l0 6.03125q0 0.5 0.28125 0.671875q0.296875 0.171875 0.671875 0.265625q0.53125 0.171875 0.53125 0.484375q0 0.15625 -0.125 0.25q-0.125 0.078125 -0.328125 0.078125q-0.5 0 -0.890625 -0.046875q-0.375 -0.03125 -0.734375 -0.046875q-0.34375 -0.03125 -0.796875 -0.03125q-0.4375 0 -0.828125 0.03125q-0.375 0.015625 -0.78125 0.046875q-0.390625 0.046875 -0.90625 0.046875zm17.962158 0.28125q-1.515625 0 -2.3125 -0.8125q-0.78125 -0.8125 -0.78125 -2.359375l0 -5.84375q0 -0.203125 -0.171875 -0.296875q-0.15625 -0.109375 -0.640625 -0.140625l-0.28125 0q-0.140625 0 -0.25 -0.234375q-0.09375 -0.25 -0.09375 -0.46875q0 -0.0625 0.03125 -0.140625q0.03125 -0.09375 0.109375 -0.125q0.59375 -0.25 1.1875 -0.6875q0.609375 -0.4375 1.140625 -0.90625q0.546875 -0.46875 0.890625 -0.8125q0.1875 -0.125 0.296875 -0.21875q0.109375 -0.109375 0.265625 -0.109375q0.203125 0 0.3125 0.09375q0.109375 0.09375 0.0625 0.34375l-0.15625 1.390625q-0.015625 0.3125 0.140625 0.421875q0.171875 0.09375 0.46875 0.09375l3.0 0q0.078125 0 0.140625 0.171875q0.078125 0.171875 0.078125 0.359375q0 0.328125 -0.09375 0.609375q-0.078125 0.265625 -0.203125 0.265625l-2.40625 0q-0.578125 0 -0.796875 0.140625q-0.21875 0.125 -0.21875 0.515625l0 4.875q0 1.109375 0.421875 1.6875q0.4375 0.5625 1.21875 0.5625q0.71875 0 1.078125 -0.125q0.375 -0.125 0.671875 -0.3125q0.078125 -0.046875 0.125 -0.046875q0.125 0 0.1875 0.15625q0.0625 0.15625 0.0625 0.328125q0 0.125 -0.5 0.53125q-0.484375 0.40625 -1.28125 0.75q-0.796875 0.34375 -1.703125 0.34375z" fill-rule="nonzero"/><path fill="#000000" d="m392.7387 111.48515q-1.796875 0 -3.390625 -0.609375q-1.59375 -0.609375 -2.828125 -1.703125q-1.234375 -1.109375 -1.9375 -2.625q-0.6875 -1.53125 -0.6875 -3.34375q0 -1.796875 0.6875 -3.390625q0.703125 -1.609375 1.96875 -2.828125q1.265625 -1.234375 3.0 -1.953125q1.734375 -0.71875 3.84375 -0.71875q0.484375 0 1.1875 0.09375q0.71875 0.078125 1.46875 0.203125q0.765625 0.125 1.40625 0.28125q0.640625 0.15625 1.0 0.296875q0.1875 0.078125 0.28125 0.203125q0.109375 0.109375 0.125 0.3125q0.125 0.828125 0.203125 1.59375q0.078125 0.765625 0.078125 1.3125q0 0.203125 -0.125 0.359375q-0.109375 0.15625 -0.28125 0.15625q-0.28125 0 -0.40625 -0.1875q-0.125 -0.203125 -0.234375 -0.421875q-0.1875 -0.453125 -0.453125 -0.890625q-0.25 -0.453125 -0.625 -0.859375q-0.25 -0.25 -0.703125 -0.546875q-0.4375 -0.296875 -1.125 -0.5q-0.6875 -0.203125 -1.671875 -0.203125q-1.390625 0 -2.515625 0.578125q-1.109375 0.5625 -1.875 1.578125q-0.75 1.015625 -1.15625 2.296875q-0.40625 1.28125 -0.40625 2.671875q0 1.75 0.40625 3.15625q0.40625 1.40625 1.140625 2.40625q0.734375 1.0 1.75 1.53125q1.015625 0.53125 2.28125 0.53125q0.90625 0 1.421875 -0.265625q0.53125 -0.265625 0.75 -0.46875q0.28125 -0.234375 0.453125 -0.6875q0.1875 -0.453125 0.203125 -1.0625q0 -0.234375 0.015625 -0.578125q0.015625 -0.359375 0.03125 -0.703125q0.015625 -0.359375 0.015625 -0.59375q0 -0.28125 -0.09375 -0.484375q-0.09375 -0.21875 -0.34375 -0.34375q-0.234375 -0.1875 -0.59375 -0.328125q-0.34375 -0.140625 -0.71875 -0.203125q-0.359375 -0.0625 -0.59375 -0.078125q-0.171875 -0.03125 -0.375 -0.171875q-0.203125 -0.140625 -0.203125 -0.34375q0 -0.203125 0.1875 -0.296875q0.1875 -0.109375 0.34375 -0.109375q0.578125 0 1.203125 0.03125q0.625 0.03125 1.234375 0.0625q0.625 0.015625 1.21875 0.015625q0.703125 0 1.390625 -0.046875q0.703125 -0.0625 1.4375 -0.0625q0.15625 0 0.3125 0.09375q0.171875 0.09375 0.171875 0.3125q0 0.203125 -0.1875 0.328125q-0.171875 0.125 -0.3125 0.15625q-0.6875 0.171875 -0.9375 0.453125q-0.234375 0.28125 -0.3125 0.78125q-0.09375 0.5625 -0.140625 1.0q-0.03125 0.421875 -0.03125 0.90625l0 0.78125q0 0.125 0.078125 0.234375q0.09375 0.09375 0.203125 0.21875q0.09375 0.140625 0.171875 0.265625q0.09375 0.125 0.09375 0.25q0 0.15625 -0.09375 0.328125q-0.078125 0.15625 -0.359375 0.203125q-0.171875 0.03125 -0.6875 0.28125q-0.5 0.25 -1.28125 0.578125q-0.765625 0.3125 -1.796875 0.53125q-1.015625 0.234375 -2.28125 0.234375zm13.958801 0q-1.40625 0 -2.46875 -0.703125q-1.0625 -0.71875 -1.671875 -1.96875q-0.59375 -1.265625 -0.59375 -2.859375q0 -1.546875 0.71875 -2.8125q0.71875 -1.28125 1.9375 -2.046875q1.21875 -0.765625 2.65625 -0.765625q1.0625 0 1.890625 0.453125q0.84375 0.4375 1.328125 1.21875q0.5 0.765625 0.5 1.734375q0 0.90625 -0.78125 0.90625l-5.140625 0q-0.359375 0 -0.53125 0.1875q-0.15625 0.1875 -0.15625 0.703125q0 1.0625 0.46875 1.921875q0.46875 0.859375 1.25 1.375q0.796875 0.5 1.796875 0.5q0.734375 0 1.359375 -0.28125q0.625 -0.296875 1.1875 -0.8125q0.09375 -0.078125 0.171875 -0.140625q0.078125 -0.0625 0.15625 -0.0625q0.25 0 0.25 0.3125q0 0.34375 -0.3125 0.859375q-0.296875 0.578125 -0.875 1.109375q-0.5625 0.53125 -1.375 0.84375q-0.8125 0.328125 -1.765625 0.328125zm-1.625 -7.828125l1.796875 0q0.65625 0 0.984375 -0.015625q0.328125 -0.03125 0.640625 -0.109375q0.125 -0.03125 0.171875 -0.21875q0.046875 -0.1875 0.046875 -0.4375q0 -0.6875 -0.515625 -1.15625q-0.515625 -0.46875 -1.28125 -0.46875q-0.53125 0 -1.046875 0.3125q-0.5 0.3125 -0.828125 0.796875q-0.328125 0.484375 -0.296875 0.984375q0 0.3125 0.328125 0.3125zm12.441589 7.828125q-1.5 0 -2.6875 -0.671875q-1.1875 -0.671875 -1.90625 -1.859375q-0.703125 -1.203125 -0.703125 -2.6875q0 -1.171875 0.453125 -2.234375q0.453125 -1.0625 1.234375 -1.890625q0.796875 -0.84375 1.859375 -1.328125q1.0625 -0.5 2.28125 -0.5q1.53125 0 2.765625 0.71875q1.234375 0.71875 1.96875 1.921875q0.734375 1.1875 0.734375 2.59375q0 1.578125 -0.671875 2.9375q-0.671875 1.34375 -2.0 2.171875q-1.328125 0.828125 -3.328125 0.828125zm0.5 -1.0q0.640625 0 1.125 -0.25q0.5 -0.25 0.796875 -0.78125q0.3125 -0.53125 0.421875 -1.40625q0.109375 -0.875 0.109375 -1.890625q0 -1.34375 -0.359375 -2.421875q-0.34375 -1.09375 -0.984375 -1.75q-0.625 -0.65625 -1.484375 -0.65625q-0.484375 0 -0.875 0.171875q-0.390625 0.15625 -0.71875 0.53125q-0.46875 0.53125 -0.640625 1.453125q-0.15625 0.921875 -0.15625 2.140625q0 1.21875 0.359375 2.34375q0.375 1.109375 1.0 1.8125q0.625 0.703125 1.40625 0.703125zm7.242218 0.71875q-0.171875 0 -0.34375 -0.078125q-0.15625 -0.078125 -0.15625 -0.25q0 -0.203125 0.171875 -0.296875q0.171875 -0.109375 0.40625 -0.1875q0.359375 -0.125 0.6875 -0.28125q0.328125 -0.171875 0.328125 -0.6875l0 -5.671875q0 -0.578125 -0.15625 -1.015625q-0.15625 -0.453125 -0.703125 -0.53125q-0.109375 -0.015625 -0.1875 -0.109375q-0.078125 -0.09375 -0.078125 -0.3125q0 -0.3125 0.234375 -0.375q0.65625 -0.15625 1.25 -0.359375q0.59375 -0.203125 1.140625 -0.453125q0.546875 -0.265625 1.0 -0.515625q0.078125 -0.046875 0.15625 -0.09375q0.078125 -0.046875 0.15625 -0.046875q0.203125 0 0.203125 0.25q0 0.203125 -0.0625 0.703125q-0.0625 0.484375 -0.0625 0.84375q0 0.25 0.046875 0.296875l0.046875 0q0.703125 -0.6875 1.625 -1.1875q0.9375 -0.515625 2.203125 -0.515625q0.8125 0 1.453125 0.5q0.640625 0.5 1.0 1.375l0.109375 0q0.75 -0.859375 1.734375 -1.359375q1.0 -0.515625 2.1875 -0.515625q0.8125 0 1.40625 0.46875q0.609375 0.46875 0.96875 1.28125q0.359375 0.8125 0.359375 1.859375l0 5.515625q0 0.5 0.296875 0.65625q0.3125 0.15625 0.6875 0.28125q0.234375 0.078125 0.390625 0.1875q0.171875 0.09375 0.171875 0.296875q0 0.15625 -0.125 0.25q-0.125 0.078125 -0.359375 0.078125q-0.5 0 -0.90625 -0.046875q-0.390625 -0.03125 -0.75 -0.046875q-0.34375 -0.03125 -0.796875 -0.03125q-0.4375 0 -0.78125 0.03125q-0.34375 0.015625 -0.703125 0.046875q-0.34375 0.046875 -0.84375 0.046875q-0.203125 0 -0.34375 -0.078125q-0.125 -0.09375 -0.125 -0.25q0 -0.203125 0.15625 -0.296875q0.15625 -0.109375 0.375 -0.1875q0.359375 -0.09375 0.578125 -0.265625q0.234375 -0.171875 0.234375 -0.59375l0 -5.21875q0 -0.640625 -0.203125 -1.109375q-0.203125 -0.484375 -0.578125 -0.765625q-0.359375 -0.296875 -0.8125 -0.296875q-0.421875 0 -0.875 0.140625q-0.4375 0.125 -0.84375 0.453125q-0.484375 0.40625 -0.484375 1.328125l0 5.390625q0 0.5 0.265625 0.671875q0.265625 0.171875 0.65625 0.265625q0.203125 0.078125 0.359375 0.1875q0.171875 0.09375 0.171875 0.296875q0 0.15625 -0.140625 0.25q-0.140625 0.078125 -0.328125 0.078125q-0.5 0 -0.875 -0.046875q-0.359375 -0.03125 -0.6875 -0.046875q-0.328125 -0.03125 -0.78125 -0.03125q-0.4375 0 -0.78125 0.03125q-0.34375 0.015625 -0.71875 0.046875q-0.359375 0.046875 -0.859375 0.046875q-0.171875 0 -0.3125 -0.078125q-0.140625 -0.09375 -0.140625 -0.25q0 -0.203125 0.15625 -0.296875q0.171875 -0.109375 0.375 -0.1875q0.34375 -0.09375 0.578125 -0.265625q0.25 -0.171875 0.25 -0.59375l0 -5.21875q0 -0.640625 -0.203125 -1.109375q-0.203125 -0.484375 -0.578125 -0.765625q-0.359375 -0.296875 -0.8125 -0.296875q-0.421875 0 -0.859375 0.140625q-0.4375 0.125 -0.890625 0.453125q-0.421875 0.34375 -0.421875 1.265625l0 5.453125q0 0.453125 0.203125 0.640625q0.21875 0.171875 0.609375 0.296875q0.203125 0.078125 0.359375 0.1875q0.171875 0.09375 0.171875 0.296875q0 0.15625 -0.140625 0.25q-0.125 0.078125 -0.328125 0.078125q-0.5 0 -0.859375 -0.046875q-0.34375 -0.03125 -0.6875 -0.046875q-0.328125 -0.03125 -0.78125 -0.03125q-0.421875 0 -0.796875 0.03125q-0.359375 0.015625 -0.75 0.046875q-0.390625 0.046875 -0.90625 0.046875zm24.499023 0.28125q-1.40625 0 -2.46875 -0.703125q-1.0625 -0.71875 -1.671875 -1.96875q-0.59375 -1.265625 -0.59375 -2.859375q0 -1.546875 0.71875 -2.8125q0.71875 -1.28125 1.9375 -2.046875q1.21875 -0.765625 2.65625 -0.765625q1.0625 0 1.890625 0.453125q0.84375 0.4375 1.328125 1.21875q0.5 0.765625 0.5 1.734375q0 0.90625 -0.78125 0.90625l-5.140625 0q-0.359375 0 -0.53125 0.1875q-0.15625 0.1875 -0.15625 0.703125q0 1.0625 0.46875 1.921875q0.46875 0.859375 1.25 1.375q0.796875 0.5 1.796875 0.5q0.734375 0 1.359375 -0.28125q0.625 -0.296875 1.1875 -0.8125q0.09375 -0.078125 0.171875 -0.140625q0.078125 -0.0625 0.15625 -0.0625q0.25 0 0.25 0.3125q0 0.34375 -0.3125 0.859375q-0.296875 0.578125 -0.875 1.109375q-0.5625 0.53125 -1.375 0.84375q-0.8125 0.328125 -1.765625 0.328125zm-1.625 -7.828125l1.796875 0q0.65625 0 0.984375 -0.015625q0.328125 -0.03125 0.640625 -0.109375q0.125 -0.03125 0.171875 -0.21875q0.046875 -0.1875 0.046875 -0.4375q0 -0.6875 -0.515625 -1.15625q-0.515625 -0.46875 -1.28125 -0.46875q-0.53125 0 -1.046875 0.3125q-0.5 0.3125 -0.828125 0.796875q-0.328125 0.484375 -0.296875 0.984375q0 0.3125 0.328125 0.3125zm11.880768 7.828125q-1.515625 0 -2.3125 -0.8125q-0.78125 -0.8125 -0.78125 -2.359375l0 -5.84375q0 -0.203125 -0.171875 -0.296875q-0.15625 -0.109375 -0.640625 -0.140625l-0.28125 0q-0.140625 0 -0.25 -0.234375q-0.09375 -0.25 -0.09375 -0.46875q0 -0.0625 0.03125 -0.140625q0.03125 -0.09375 0.109375 -0.125q0.59375 -0.25 1.1875 -0.6875q0.609375 -0.4375 1.140625 -0.90625q0.546875 -0.46875 0.890625 -0.8125q0.1875 -0.125 0.296875 -0.21875q0.109375 -0.109375 0.265625 -0.109375q0.203125 0 0.3125 0.09375q0.109375 0.09375 0.0625 0.34375l-0.15625 1.390625q-0.015625 0.3125 0.140625 0.421875q0.171875 0.09375 0.46875 0.09375l3.0 0q0.078125 0 0.140625 0.171875q0.078125 0.171875 0.078125 0.359375q0 0.328125 -0.09375 0.609375q-0.078125 0.265625 -0.203125 0.265625l-2.40625 0q-0.578125 0 -0.796875 0.140625q-0.21875 0.125 -0.21875 0.515625l0 4.875q0 1.109375 0.421875 1.6875q0.4375 0.5625 1.21875 0.5625q0.71875 0 1.078125 -0.125q0.375 -0.125 0.671875 -0.3125q0.078125 -0.046875 0.125 -0.046875q0.125 0 0.1875 0.15625q0.0625 0.15625 0.0625 0.328125q0 0.125 -0.5 0.53125q-0.484375 0.40625 -1.28125 0.75q-0.796875 0.34375 -1.703125 0.34375zm4.804016 -0.28125q-0.203125 0 -0.359375 -0.078125q-0.140625 -0.09375 -0.140625 -0.25q0 -0.203125 0.15625 -0.296875q0.171875 -0.109375 0.421875 -0.1875q0.53125 -0.15625 0.75 -0.359375q0.21875 -0.21875 0.21875 -0.609375l0 -5.6875q0 -0.59375 -0.171875 -0.984375q-0.15625 -0.390625 -0.6875 -0.515625q-0.109375 -0.046875 -0.21875 -0.140625q-0.09375 -0.09375 -0.09375 -0.265625q0 -0.328125 0.28125 -0.40625q0.765625 -0.203125 1.640625 -0.546875q0.890625 -0.34375 1.5 -0.671875q0.125 -0.078125 0.28125 -0.140625q0.15625 -0.078125 0.21875 -0.078125q0.203125 0 0.203125 0.25q0 0.09375 -0.015625 0.453125q0 0.359375 -0.015625 0.78125q-0.015625 0.40625 -0.03125 0.734375q0 0.15625 0.0625 0.15625q0.40625 -0.53125 0.90625 -0.984375q0.515625 -0.453125 1.078125 -0.75q0.578125 -0.3125 1.15625 -0.3125q0.734375 0 1.09375 0.3125q0.375 0.296875 0.375 0.75q0 0.359375 -0.1875 0.765625q-0.1875 0.390625 -0.484375 0.6875q-0.28125 0.296875 -0.640625 0.296875q-0.203125 0 -0.4375 -0.09375q-0.21875 -0.09375 -0.453125 -0.21875q-0.21875 -0.09375 -0.46875 -0.1875q-0.234375 -0.109375 -0.4375 -0.109375q-0.625 0 -1.140625 0.46875q-0.5 0.46875 -0.5 1.828125l0 4.46875q0 0.453125 0.328125 0.703125q0.328125 0.234375 1.015625 0.4375q0.265625 0.0625 0.40625 0.15625q0.140625 0.09375 0.140625 0.296875q0 0.328125 -0.453125 0.328125q-0.765625 0 -1.4375 -0.0625q-0.65625 -0.0625 -1.328125 -0.0625q-0.421875 0 -0.8125 0.03125q-0.390625 0.015625 -0.796875 0.046875q-0.40625 0.046875 -0.921875 0.046875zm10.686707 7.109375q-0.59375 0 -1.140625 -0.390625q-0.53125 -0.390625 -0.53125 -1.015625q0 -0.484375 0.234375 -0.921875q0.25 -0.421875 0.734375 -0.421875q0.359375 0 0.71875 0.125q0.375 0.125 0.703125 0.09375q0.296875 -0.015625 0.4375 -0.140625q0.140625 -0.109375 0.3125 -0.40625q0.203125 -0.359375 0.4375 -0.78125q0.25 -0.421875 0.515625 -1.0q0.265625 -0.578125 0.59375 -1.390625q0.234375 -0.53125 0.234375 -1.015625q0 -0.296875 -0.078125 -0.578125q-0.078125 -0.28125 -0.171875 -0.515625l-3.0625 -7.21875q-0.203125 -0.5 -0.5 -0.875q-0.296875 -0.390625 -0.71875 -0.515625q-0.234375 -0.09375 -0.375 -0.1875q-0.140625 -0.109375 -0.140625 -0.3125q0 -0.203125 0.203125 -0.234375q0.203125 -0.046875 0.359375 -0.046875q0.578125 0 0.9375 0.03125q0.359375 0.015625 0.65625 0.046875q0.3125 0.03125 0.65625 0.03125q0.53125 0 0.859375 -0.03125q0.328125 -0.03125 0.6875 -0.046875q0.375 -0.03125 0.9375 -0.03125q0.171875 0 0.375 0.0625q0.203125 0.0625 0.203125 0.265625q0 0.203125 -0.234375 0.328125q-0.21875 0.109375 -0.421875 0.1875q-0.25 0.0625 -0.40625 0.28125q-0.140625 0.21875 -0.140625 0.625q0 0.171875 0.0625 0.4375q0.078125 0.265625 0.1875 0.578125l1.75 4.21875q0.015625 0.109375 0.09375 0.109375q0.03125 0 0.078125 -0.109375l1.4375 -4.125q0.078125 -0.171875 0.140625 -0.453125q0.0625 -0.296875 0.0625 -0.5q0 -0.46875 -0.21875 -0.703125q-0.203125 -0.234375 -0.453125 -0.34375q-0.203125 -0.09375 -0.4375 -0.203125q-0.234375 -0.125 -0.234375 -0.328125q0 -0.203125 0.21875 -0.265625q0.21875 -0.0625 0.375 -0.0625q0.546875 0 0.921875 0.0625q0.390625 0.046875 0.890625 0.046875q0.34375 0 0.546875 -0.03125q0.21875 -0.03125 0.46875 -0.046875q0.265625 -0.03125 0.640625 -0.03125q0.15625 0 0.359375 0.046875q0.21875 0.03125 0.21875 0.234375q0 0.203125 -0.140625 0.3125q-0.140625 0.09375 -0.359375 0.1875q-0.4375 0.125 -0.84375 0.578125q-0.40625 0.4375 -0.65625 1.015625l-3.640625 8.828125q-0.15625 0.34375 -0.421875 0.9375q-0.25 0.59375 -0.546875 1.296875q-0.28125 0.71875 -0.609375 1.46875q-0.328125 0.765625 -0.625 1.5q-0.28125 0.671875 -0.859375 1.0q-0.5625 0.34375 -1.28125 0.34375zm32.68332 -6.734375q-0.3125 0 -1.015625 -0.375q-0.703125 -0.375 -1.4375 -1.3125q-0.4375 -0.484375 -1.0625 -1.171875q-0.609375 -0.703125 -1.359375 -1.53125q-0.75 -0.84375 -1.5625 -1.75q-0.8125 -0.921875 -1.609375 -1.828125q-0.796875 -0.921875 -1.5625 -1.75q-0.75 -0.84375 -1.390625 -1.53125q-0.625 -0.703125 -1.0625 -1.203125q-0.09375 -0.125 -0.21875 -0.21875q-0.109375 -0.09375 -0.1875 -0.09375q-0.09375 0 -0.15625 0.1875q-0.046875 0.171875 -0.046875 0.328125q0 1.15625 0.015625 2.75q0.015625 1.59375 0.015625 3.25q0 1.640625 0 3.03125q0 0.796875 0.453125 1.296875q0.453125 0.5 1.4375 0.734375q0.3125 0.046875 0.53125 0.171875q0.21875 0.109375 0.21875 0.3125q0 0.171875 -0.203125 0.25q-0.203125 0.078125 -0.46875 0.078125q-0.671875 0 -1.078125 -0.03125q-0.40625 -0.015625 -0.734375 -0.046875q-0.328125 -0.03125 -0.84375 -0.03125q-0.53125 0 -0.953125 0.03125q-0.40625 0.03125 -0.75 0.0625q-0.328125 0.03125 -0.625 0.03125q-0.25 0 -0.453125 -0.09375q-0.203125 -0.078125 -0.203125 -0.234375q0 -0.203125 0.1875 -0.3125q0.1875 -0.109375 0.515625 -0.21875q0.65625 -0.203125 0.96875 -0.734375q0.328125 -0.546875 0.40625 -1.3125q0.09375 -0.96875 0.1875 -2.515625q0.109375 -1.5625 0.203125 -3.515625q0.09375 -1.953125 0.09375 -4.015625q0 -1.328125 -0.671875 -1.90625q-0.671875 -0.578125 -1.6875 -0.9375q-0.1875 -0.046875 -0.46875 -0.203125q-0.265625 -0.15625 -0.265625 -0.375q0 -0.234375 0.203125 -0.3125q0.203125 -0.078125 0.421875 -0.078125q0.53125 0 1.0625 0.03125q0.53125 0.03125 1.078125 0.046875q0.546875 0 1.140625 0.03125q0.59375 0.015625 1.28125 0.015625q0.234375 0 0.34375 0.09375q0.109375 0.09375 0.21875 0.25q0.40625 0.46875 1.03125 1.203125q0.640625 0.71875 1.375 1.59375q0.75 0.875 1.578125 1.84375q0.828125 0.953125 1.640625 1.921875q0.828125 0.953125 1.578125 1.828125q0.765625 0.875 1.390625 1.59375q0.625 0.71875 1.03125 1.171875q0.09375 0.109375 0.234375 0.265625q0.140625 0.140625 0.25 0.140625q0.203125 0 0.21875 -0.421875q0 -0.65625 0 -1.6875q0 -1.03125 0.015625 -2.28125q0.015625 -1.25 0 -2.5625q-0.015625 -1.328125 -0.03125 -2.546875q-0.03125 -0.625 -0.53125 -0.984375q-0.484375 -0.375 -1.21875 -0.53125q-0.3125 -0.078125 -0.578125 -0.1875q-0.265625 -0.109375 -0.265625 -0.34375q0 -0.171875 0.265625 -0.25q0.265625 -0.078125 0.5 -0.078125q0.5 0 0.84375 0q0.34375 0 0.640625 0.015625q0.3125 0.015625 0.640625 0.015625q0.5625 0 0.90625 -0.015625q0.359375 -0.015625 0.78125 -0.03125q0.421875 -0.03125 1.09375 -0.03125q0.3125 0 0.5 0.09375q0.1875 0.078125 0.1875 0.234375q0 0.375 -0.734375 0.53125q-0.890625 0.171875 -1.265625 0.484375q-0.359375 0.296875 -0.375 1.015625q0 0.625 -0.015625 1.625q-0.015625 0.984375 -0.046875 2.15625q-0.015625 1.15625 -0.0625 2.375q-0.03125 1.203125 -0.046875 2.375q-0.015625 1.15625 -0.015625 2.09375q0 0.609375 0.046875 1.25q0.0625 0.625 0.125 1.125q0.0625 0.5 0.0625 0.703125q0 0.546875 -0.1875 0.75q-0.171875 0.203125 -0.46875 0.203125zm8.817902 -0.09375q-1.5 0 -2.6875 -0.671875q-1.1875 -0.671875 -1.90625 -1.859375q-0.703125 -1.203125 -0.703125 -2.6875q0 -1.171875 0.453125 -2.234375q0.453125 -1.0625 1.234375 -1.890625q0.796875 -0.84375 1.859375 -1.328125q1.0625 -0.5 2.28125 -0.5q1.53125 0 2.765625 0.71875q1.234375 0.71875 1.96875 1.921875q0.734375 1.1875 0.734375 2.59375q0 1.578125 -0.671875 2.9375q-0.671875 1.34375 -2.0 2.171875q-1.328125 0.828125 -3.328125 0.828125zm0.5 -1.0q0.640625 0 1.125 -0.25q0.5 -0.25 0.796875 -0.78125q0.3125 -0.53125 0.421875 -1.40625q0.109375 -0.875 0.109375 -1.890625q0 -1.34375 -0.359375 -2.421875q-0.34375 -1.09375 -0.984375 -1.75q-0.625 -0.65625 -1.484375 -0.65625q-0.484375 0 -0.875 0.171875q-0.390625 0.15625 -0.71875 0.53125q-0.46875 0.53125 -0.640625 1.453125q-0.15625 0.921875 -0.15625 2.140625q0 1.21875 0.359375 2.34375q0.375 1.109375 1.0 1.8125q0.625 0.703125 1.40625 0.703125zm15.2421875 1.125q-0.078125 0 -0.21875 -0.140625q-0.125 -0.140625 -0.125 -0.21875q0.046875 -0.359375 0.078125 -0.75q0.046875 -0.390625 0.0625 -0.671875l0 -0.140625q-0.46875 0.703125 -1.34375 1.25q-0.875 0.546875 -2.0 0.546875q-1.40625 0 -2.5 -0.71875q-1.09375 -0.734375 -1.71875 -1.9375q-0.609375 -1.203125 -0.609375 -2.59375q0 -1.640625 0.734375 -2.96875q0.75 -1.328125 2.09375 -2.09375q1.34375 -0.78125 3.125 -0.78125q0.421875 0 0.859375 0.0625q0.453125 0.0625 0.78125 0.15625q0.3125 0.078125 0.328125 0.078125q0.125 0 0.125 -0.421875l0 -3.203125q0 -0.953125 -0.25 -1.328125q-0.25 -0.390625 -0.8125 -0.484375q-0.28125 -0.078125 -0.28125 -0.390625q0 -0.28125 0.265625 -0.34375q0.984375 -0.234375 1.859375 -0.515625q0.875 -0.296875 1.421875 -0.546875q0.25 -0.109375 0.359375 -0.140625q0.125 -0.046875 0.15625 -0.046875q0.25 0 0.25 0.25q0 0 -0.03125 0.3125q-0.015625 0.296875 -0.0625 0.828125q-0.03125 0.515625 -0.0625 1.171875l-0.078125 12.328125q0 0.859375 0.125 1.25q0.140625 0.375 0.4375 0.375q0.125 0 0.328125 -0.015625q0.203125 -0.015625 0.703125 -0.0625q0.390625 -0.015625 0.390625 0.25q0 0.203125 -0.140625 0.40625q-0.140625 0.1875 -0.265625 0.1875q-0.859375 0.09375 -1.75 0.328125q-0.890625 0.21875 -1.796875 0.578125q-0.171875 0.078125 -0.265625 0.109375q-0.09375 0.046875 -0.171875 0.046875zm-2.375 -1.71875q0.484375 0 1.0625 -0.234375q0.578125 -0.25 0.984375 -0.6875l0 -5.265625q0 -0.53125 -0.359375 -1.046875q-0.34375 -0.515625 -0.9375 -0.859375q-0.578125 -0.34375 -1.234375 -0.34375q-0.609375 0 -1.1875 0.453125q-0.578125 0.4375 -0.984375 1.34375q-0.390625 0.90625 -0.390625 2.328125q0 1.171875 0.296875 2.0q0.296875 0.8125 0.75 1.328125q0.453125 0.5 0.984375 0.75q0.53125 0.234375 1.015625 0.234375zm12.010071 1.59375q-1.40625 0 -2.46875 -0.703125q-1.0625 -0.71875 -1.671875 -1.96875q-0.59375 -1.265625 -0.59375 -2.859375q0 -1.546875 0.71875 -2.8125q0.71875 -1.28125 1.9375 -2.046875q1.21875 -0.765625 2.65625 -0.765625q1.0625 0 1.890625 0.453125q0.84375 0.4375 1.328125 1.21875q0.5 0.765625 0.5 1.734375q0 0.90625 -0.78125 0.90625l-5.140625 0q-0.359375 0 -0.53125 0.1875q-0.15625 0.1875 -0.15625 0.703125q0 1.0625 0.46875 1.921875q0.46875 0.859375 1.25 1.375q0.796875 0.5 1.796875 0.5q0.734375 0 1.359375 -0.28125q0.625 -0.296875 1.1875 -0.8125q0.09375 -0.078125 0.171875 -0.140625q0.078125 -0.0625 0.15625 -0.0625q0.25 0 0.25 0.3125q0 0.34375 -0.3125 0.859375q-0.296875 0.578125 -0.875 1.109375q-0.5625 0.53125 -1.375 0.84375q-0.8125 0.328125 -1.765625 0.328125zm-1.625 -7.828125l1.796875 0q0.65625 0 0.984375 -0.015625q0.328125 -0.03125 0.640625 -0.109375q0.125 -0.03125 0.171875 -0.21875q0.046875 -0.1875 0.046875 -0.4375q0 -0.6875 -0.515625 -1.15625q-0.515625 -0.46875 -1.28125 -0.46875q-0.53125 0 -1.046875 0.3125q-0.5 0.3125 -0.828125 0.796875q-0.328125 0.484375 -0.296875 0.984375q0 0.3125 0.328125 0.3125zm10.583923 7.828125q-0.8125 0 -1.5625 -0.21875q-0.734375 -0.21875 -1.34375 -0.640625q-0.1875 -0.359375 -0.28125 -1.109375q-0.078125 -0.765625 -0.078125 -1.5q0 -0.3125 0.4375 -0.3125q0.171875 0 0.296875 0.109375q0.125 0.09375 0.171875 0.21875q0.4375 1.125 1.09375 1.796875q0.65625 0.65625 1.5 0.65625q0.703125 0 1.109375 -0.4375q0.40625 -0.4375 0.40625 -1.03125q0 -0.671875 -0.5 -1.125q-0.484375 -0.46875 -1.34375 -0.9375q-0.796875 -0.4375 -1.421875 -0.921875q-0.609375 -0.484375 -0.96875 -1.09375q-0.34375 -0.625 -0.34375 -1.46875q0 -0.9375 0.46875 -1.640625q0.484375 -0.703125 1.359375 -1.109375q0.875 -0.40625 2.015625 -0.40625q0.8125 0 1.453125 0.1875q0.65625 0.171875 0.90625 0.34375q0.203125 0.25 0.328125 0.921875q0.125 0.671875 0.125 1.40625q0 0.234375 -0.375 0.234375q-0.1875 0 -0.359375 -0.09375q-0.171875 -0.109375 -0.234375 -0.21875q-0.328125 -0.9375 -0.84375 -1.40625q-0.5 -0.484375 -1.15625 -0.484375q-0.578125 0 -1.046875 0.375q-0.46875 0.359375 -0.46875 1.015625q0 0.53125 0.4375 0.96875q0.453125 0.421875 1.28125 0.875q1.59375 0.859375 2.296875 1.640625q0.71875 0.765625 0.71875 2.0625q0 1.546875 -1.0625 2.453125q-1.0625 0.890625 -3.015625 0.890625z" fill-rule="nonzero"/><path fill="#ffffff" d="m695.69293 130.20735l204.8819 0l0 45.795273l-204.8819 0z" fill-rule="evenodd"/><path stroke="#000000" stroke-width="2.0" stroke-linejoin="round" stroke-linecap="butt" d="m695.69293 130.20735l204.8819 0l0 45.795273l-204.8819 0z" fill-rule="evenodd"/><path fill="#000000" d="m717.17957 162.59686q-0.671875 0 -1.640625 -0.046875q-0.96875 -0.046875 -1.9375 -0.09375q-0.96875 -0.03125 -1.609375 -0.03125q-0.5 0 -1.03125 0.015625q-0.515625 0.015625 -1.078125 0.046875q-0.546875 0.03125 -1.1875 0.03125q-0.21875 0 -0.40625 -0.09375q-0.171875 -0.078125 -0.171875 -0.25q0 -0.234375 0.15625 -0.328125q0.171875 -0.109375 0.5 -0.15625q0.96875 -0.203125 1.3125 -0.546875q0.359375 -0.359375 0.359375 -1.203125l0 -11.453125q0 -0.859375 -0.34375 -1.203125q-0.34375 -0.359375 -1.328125 -0.5625q-0.328125 -0.046875 -0.5 -0.15625q-0.15625 -0.125 -0.15625 -0.34375q0 -0.1875 0.171875 -0.265625q0.1875 -0.09375 0.40625 -0.09375q0.609375 0 1.171875 0.015625q0.5625 0 1.09375 0.046875q0.546875 0.03125 1.109375 0.03125q0.375 0 1.015625 -0.03125q0.65625 -0.046875 1.40625 -0.078125q0.75 -0.03125 1.40625 -0.0625q0.65625 -0.046875 1.0625 -0.046875q2.125 0 3.8125 0.609375q1.703125 0.609375 2.90625 1.703125q1.203125 1.078125 1.828125 2.578125q0.640625 1.484375 0.640625 3.234375q0 1.75 -0.640625 3.328125q-0.625 1.5625 -1.8125 2.78125q-1.171875 1.21875 -2.828125 1.921875q-1.65625 0.703125 -3.6875 0.703125zm-0.375 -1.15625q1.828125 0 3.09375 -0.875q1.28125 -0.875 1.9375 -2.453125q0.671875 -1.59375 0.671875 -3.671875q0 -1.71875 -0.453125 -3.125q-0.4375 -1.40625 -1.234375 -2.375q-0.796875 -0.984375 -1.90625 -1.515625q-1.09375 -0.53125 -2.390625 -0.53125q-0.90625 0 -1.53125 0.0625q-0.625 0.046875 -0.9375 0.296875q-0.3125 0.234375 -0.3125 0.78125l0 11.15625q0 0.875 0.390625 1.375q0.390625 0.484375 1.078125 0.6875q0.703125 0.1875 1.59375 0.1875zm11.096924 1.0625q-0.203125 0 -0.328125 -0.078125q-0.125 -0.09375 -0.125 -0.25q0 -0.203125 0.140625 -0.296875q0.15625 -0.109375 0.359375 -0.15625q0.609375 -0.15625 0.875 -0.328125q0.265625 -0.1875 0.265625 -0.609375l0 -5.5q0 -0.8125 -0.25 -1.21875q-0.25 -0.40625 -0.859375 -0.5q-0.125 -0.03125 -0.203125 -0.140625q-0.078125 -0.125 -0.078125 -0.265625q0 -0.359375 0.28125 -0.390625q1.21875 -0.25 2.109375 -0.6875q0.90625 -0.453125 1.375 -0.703125q0.359375 -0.171875 0.46875 -0.171875q0.265625 0 0.265625 0.25q-0.015625 0.359375 -0.09375 0.984375q-0.078125 0.609375 -0.140625 1.3125q-0.0625 0.6875 -0.0625 1.296875l0 5.703125q0 0.375 0.28125 0.578125q0.28125 0.203125 0.890625 0.390625q0.1875 0.0625 0.34375 0.15625q0.15625 0.09375 0.15625 0.296875q0 0.296875 -0.4375 0.296875q-0.46875 0 -0.921875 -0.03125q-0.4375 -0.015625 -0.859375 -0.03125q-0.421875 -0.03125 -0.875 -0.03125q-0.421875 0 -0.828125 0.03125q-0.40625 0.015625 -0.828125 0.046875q-0.421875 0.046875 -0.921875 0.046875zm2.53125 -12.765625q-0.734375 0 -1.25 -0.5q-0.5 -0.515625 -0.5 -1.21875q0 -0.796875 0.5 -1.296875q0.515625 -0.5 1.25 -0.5q0.75 0 1.25 0.5q0.515625 0.5 0.515625 1.296875q0 0.703125 -0.515625 1.21875q-0.5 0.5 -1.25 0.5zm7.5197144 13.046875q-0.8125 0 -1.5625 -0.21875q-0.734375 -0.21875 -1.34375 -0.640625q-0.1875 -0.359375 -0.28125 -1.109375q-0.078125 -0.765625 -0.078125 -1.5q0 -0.3125 0.4375 -0.3125q0.171875 0 0.296875 0.109375q0.125 0.09375 0.171875 0.21875q0.4375 1.125 1.09375 1.796875q0.65625 0.65625 1.5 0.65625q0.703125 0 1.109375 -0.4375q0.40625 -0.4375 0.40625 -1.03125q0 -0.671875 -0.5 -1.125q-0.484375 -0.46875 -1.34375 -0.9375q-0.796875 -0.4375 -1.421875 -0.921875q-0.609375 -0.484375 -0.96875 -1.09375q-0.34375 -0.625 -0.34375 -1.46875q0 -0.9375 0.46875 -1.640625q0.484375 -0.703125 1.359375 -1.109375q0.875 -0.40625 2.015625 -0.40625q0.8125 0 1.453125 0.1875q0.65625 0.171875 0.90625 0.34375q0.203125 0.25 0.328125 0.921875q0.125 0.671875 0.125 1.40625q0 0.234375 -0.375 0.234375q-0.1875 0 -0.359375 -0.09375q-0.171875 -0.109375 -0.234375 -0.21875q-0.328125 -0.9375 -0.84375 -1.40625q-0.5 -0.484375 -1.15625 -0.484375q-0.578125 0 -1.046875 0.375q-0.46875 0.359375 -0.46875 1.015625q0 0.53125 0.4375 0.96875q0.453125 0.421875 1.28125 0.875q1.59375 0.859375 2.296875 1.640625q0.71875 0.765625 0.71875 2.0625q0 1.546875 -1.0625 2.453125q-1.0625 0.890625 -3.015625 0.890625zm5.751709 6.484375q-0.15625 0 -0.328125 -0.078125q-0.171875 -0.078125 -0.171875 -0.25q0 -0.203125 0.171875 -0.3125q0.171875 -0.09375 0.40625 -0.171875q0.484375 -0.15625 0.75 -0.34375q0.265625 -0.1875 0.265625 -0.625l0 -12.375q0 -0.265625 -0.140625 -0.59375q-0.125 -0.34375 -0.359375 -0.640625q-0.234375 -0.296875 -0.625 -0.34375q-0.125 -0.046875 -0.1875 -0.140625q-0.0625 -0.09375 -0.0625 -0.296875q0 -0.171875 0.0625 -0.25q0.0625 -0.09375 0.171875 -0.125q0.90625 -0.203125 1.8125 -0.515625q0.921875 -0.3125 1.609375 -0.625q0.0625 -0.015625 0.140625 -0.078125q0.078125 -0.078125 0.15625 -0.078125q0.125 0 0.15625 0.09375q0.046875 0.09375 0.046875 0.21875q0 0.203125 -0.0625 0.671875q-0.0625 0.46875 -0.0625 0.796875q0 0.25 0.046875 0.28125q0.25 -0.25 0.890625 -0.671875q0.65625 -0.421875 1.5 -0.75q0.859375 -0.328125 1.640625 -0.328125q1.34375 0 2.28125 0.71875q0.953125 0.71875 1.453125 1.859375q0.515625 1.125 0.515625 2.328125q0 1.171875 -0.453125 2.28125q-0.4375 1.09375 -1.25 1.984375q-0.796875 0.875 -1.859375 1.421875q-1.046875 0.53125 -2.265625 0.53125q-0.296875 0 -0.71875 -0.09375q-0.421875 -0.09375 -0.84375 -0.234375q-0.40625 -0.140625 -0.71875 -0.3125q-0.015625 0 -0.046875 0.140625q-0.015625 0.140625 -0.03125 0.3125q-0.015625 0.1875 -0.015625 0.28125l0 4.375q0 0.34375 0.203125 0.546875q0.203125 0.21875 0.5 0.34375q0.3125 0.125 0.6875 0.234375q0.25 0.078125 0.40625 0.171875q0.15625 0.109375 0.15625 0.3125q0 0.140625 -0.15625 0.234375q-0.15625 0.09375 -0.296875 0.09375q-0.765625 0 -1.484375 -0.0625q-0.71875 -0.0625 -1.390625 -0.0625q-0.421875 0 -0.8125 0.015625q-0.375 0.03125 -0.78125 0.0625q-0.40625 0.046875 -0.90625 0.046875zm6.328125 -7.484375q0.3125 0 0.765625 -0.203125q0.453125 -0.21875 0.890625 -0.703125q0.453125 -0.484375 0.734375 -1.3125q0.296875 -0.84375 0.296875 -2.046875q0 -1.40625 -0.3125 -2.25q-0.296875 -0.84375 -0.75 -1.265625q-0.453125 -0.4375 -0.921875 -0.578125q-0.46875 -0.140625 -0.828125 -0.140625q-0.5 0 -1.03125 0.21875q-0.53125 0.203125 -0.890625 0.5q-0.359375 0.296875 -0.359375 0.5q0 0.34375 0 0.921875q0 0.5625 -0.015625 1.21875q0 0.640625 -0.015625 1.171875q-0.015625 0.53125 -0.015625 0.765625q0 0.734375 0.328125 1.484375q0.328125 0.734375 0.875 1.234375q0.5625 0.484375 1.25 0.484375zm6.969055 0.71875q-0.203125 0 -0.359375 -0.078125q-0.140625 -0.078125 -0.140625 -0.234375q0 -0.203125 0.15625 -0.296875q0.171875 -0.109375 0.421875 -0.203125q0.375 -0.125 0.6875 -0.28125q0.328125 -0.15625 0.328125 -0.6875l0 -12.359375q0 -0.703125 -0.21875 -1.1875q-0.21875 -0.5 -0.84375 -0.625q-0.265625 -0.0625 -0.265625 -0.390625q0 -0.296875 0.234375 -0.34375q0.640625 -0.125 1.296875 -0.359375q0.671875 -0.234375 1.265625 -0.453125q0.609375 -0.234375 1.015625 -0.359375q0.171875 -0.078125 0.25 -0.078125q0.125 0 0.171875 0.09375q0.046875 0.09375 0.046875 0.15625q0 0.203125 -0.078125 0.78125q-0.0625 0.5625 -0.0625 1.53125l0 13.578125q0 0.53125 0.296875 0.6875q0.3125 0.140625 0.6875 0.265625q0.25 0.109375 0.40625 0.21875q0.171875 0.09375 0.171875 0.296875q0 0.15625 -0.15625 0.234375q-0.140625 0.0625 -0.34375 0.0625q-0.484375 0 -0.890625 -0.046875q-0.40625 -0.03125 -0.796875 -0.03125q-0.390625 -0.015625 -0.84375 -0.015625q-0.4375 0 -0.8125 0.03125q-0.359375 0.015625 -0.75 0.046875q-0.375 0.046875 -0.875 0.046875zm9.072998 0.28125q-0.609375 0 -1.15625 -0.328125q-0.546875 -0.328125 -0.875 -0.859375q-0.328125 -0.546875 -0.328125 -1.09375q0 -0.859375 0.5 -1.40625q0.515625 -0.546875 1.53125 -0.984375l2.34375 -1.0q0.515625 -0.203125 0.625 -0.375q0.109375 -0.1875 0.109375 -0.671875l0.0625 -1.5q0.015625 -0.703125 -0.296875 -1.125q-0.3125 -0.4375 -0.953125 -0.4375q-0.328125 0 -0.6875 0.125q-0.34375 0.125 -0.546875 0.328125q-0.109375 0.109375 -0.15625 0.28125q-0.03125 0.15625 -0.03125 0.296875q0 0.140625 0.015625 0.328125q0.015625 0.1875 0.015625 0.34375q0 0.140625 -0.390625 0.375q-0.375 0.21875 -0.859375 0.40625q-0.46875 0.171875 -0.796875 0.171875q-0.1875 0 -0.296875 -0.125q-0.09375 -0.125 -0.09375 -0.296875q0 -0.40625 0.265625 -0.828125q0.265625 -0.421875 0.859375 -0.90625q0.625 -0.53125 1.375 -0.9375q0.765625 -0.421875 1.484375 -0.671875q0.734375 -0.265625 1.265625 -0.265625q1.21875 0 1.953125 0.8125q0.734375 0.796875 0.703125 2.078125l-0.125 5.421875q-0.03125 0.5625 0.203125 0.9375q0.25 0.375 0.609375 0.375q0.53125 0 0.859375 -0.296875q0.09375 -0.109375 0.171875 -0.109375q0.125 0 0.21875 0.09375q0.09375 0.09375 0.09375 0.21875q0 0.28125 -0.40625 0.6875q-0.453125 0.453125 -0.984375 0.6875q-0.515625 0.25 -1.015625 0.25q-1.34375 0 -2.1875 -1.390625l-0.0625 0q-0.84375 0.734375 -1.546875 1.0625q-0.6875 0.328125 -1.46875 0.328125zm1.390625 -1.53125q0.34375 0 0.59375 -0.109375q0.265625 -0.109375 0.4375 -0.3125q0.109375 -0.125 0.171875 -0.296875q0.0625 -0.1875 0.078125 -0.515625l0.0625 -1.625q0.015625 -0.25 -0.0625 -0.328125q-0.0625 -0.09375 -0.171875 -0.09375q-0.046875 0 -0.15625 0.015625q-0.09375 0 -0.21875 0.078125q-0.9375 0.390625 -1.34375 0.828125q-0.40625 0.421875 -0.40625 1.09375q0 0.6875 0.328125 0.984375q0.328125 0.28125 0.6875 0.28125zm11.576965 1.53125q-1.328125 0 -2.390625 -0.6875q-1.0625 -0.6875 -1.6875 -1.890625q-0.609375 -1.203125 -0.609375 -2.6875q0 -1.65625 0.75 -2.984375q0.765625 -1.328125 2.015625 -2.109375q1.265625 -0.796875 2.796875 -0.796875q1.9375 0 3.25 1.21875q0.25 0.234375 0.25 0.453125q0 0.1875 -0.203125 0.46875q-0.203125 0.265625 -0.484375 0.46875q-0.28125 0.203125 -0.46875 0.203125q-0.203125 0 -0.390625 -0.125q-0.171875 -0.125 -0.34375 -0.28125q-0.640625 -0.5 -1.328125 -0.84375q-0.6875 -0.359375 -1.15625 -0.359375q-1.046875 0 -1.625 0.90625q-0.578125 0.90625 -0.578125 2.734375q0 1.234375 0.421875 2.15625q0.4375 0.90625 1.21875 1.421875q0.78125 0.5 1.828125 0.5q0.75 0 1.296875 -0.234375q0.546875 -0.25 1.15625 -0.78125q0.09375 -0.078125 0.1875 -0.140625q0.09375 -0.0625 0.1875 -0.0625q0.28125 0 0.28125 0.40625q0 0.109375 -0.046875 0.296875q-0.046875 0.1875 -0.203125 0.421875q-0.28125 0.5 -0.90625 1.0625q-0.609375 0.546875 -1.421875 0.90625q-0.8125 0.359375 -1.796875 0.359375zm10.156555 0q-1.40625 0 -2.46875 -0.703125q-1.0625 -0.71875 -1.671875 -1.96875q-0.59375 -1.265625 -0.59375 -2.859375q0 -1.546875 0.71875 -2.8125q0.71875 -1.28125 1.9375 -2.046875q1.21875 -0.765625 2.65625 -0.765625q1.0625 0 1.890625 0.453125q0.84375 0.4375 1.328125 1.21875q0.5 0.765625 0.5 1.734375q0 0.90625 -0.78125 0.90625l-5.140625 0q-0.359375 0 -0.53125 0.1875q-0.15625 0.1875 -0.15625 0.703125q0 1.0625 0.46875 1.921875q0.46875 0.859375 1.25 1.375q0.796875 0.5 1.796875 0.5q0.734375 0 1.359375 -0.28125q0.625 -0.296875 1.1875 -0.8125q0.09375 -0.078125 0.171875 -0.140625q0.078125 -0.0625 0.15625 -0.0625q0.25 0 0.25 0.3125q0 0.34375 -0.3125 0.859375q-0.296875 0.578125 -0.875 1.109375q-0.5625 0.53125 -1.375 0.84375q-0.8125 0.328125 -1.765625 0.328125zm-1.625 -7.828125l1.796875 0q0.65625 0 0.984375 -0.015625q0.328125 -0.03125 0.640625 -0.109375q0.125 -0.03125 0.171875 -0.21875q0.046875 -0.1875 0.046875 -0.4375q0 -0.6875 -0.515625 -1.15625q-0.515625 -0.46875 -1.28125 -0.46875q-0.53125 0 -1.046875 0.3125q-0.5 0.3125 -0.828125 0.796875q-0.328125 0.484375 -0.296875 0.984375q0 0.3125 0.328125 0.3125zm15.519714 7.953125q-0.078125 0 -0.21875 -0.140625q-0.125 -0.140625 -0.125 -0.21875q0.046875 -0.359375 0.078125 -0.75q0.046875 -0.390625 0.0625 -0.671875l0 -0.140625q-0.46875 0.703125 -1.34375 1.25q-0.875 0.546875 -2.0 0.546875q-1.40625 0 -2.5 -0.71875q-1.09375 -0.734375 -1.71875 -1.9375q-0.609375 -1.203125 -0.609375 -2.59375q0 -1.640625 0.734375 -2.96875q0.75 -1.328125 2.09375 -2.09375q1.34375 -0.78125 3.125 -0.78125q0.421875 0 0.859375 0.0625q0.453125 0.0625 0.78125 0.15625q0.3125 0.078125 0.328125 0.078125q0.125 0 0.125 -0.421875l0 -3.203125q0 -0.953125 -0.25 -1.328125q-0.25 -0.390625 -0.8125 -0.484375q-0.28125 -0.078125 -0.28125 -0.390625q0 -0.28125 0.265625 -0.34375q0.984375 -0.234375 1.859375 -0.515625q0.875 -0.296875 1.421875 -0.546875q0.25 -0.109375 0.359375 -0.140625q0.125 -0.046875 0.15625 -0.046875q0.25 0 0.25 0.25q0 0 -0.03125 0.3125q-0.015625 0.296875 -0.0625 0.828125q-0.03125 0.515625 -0.0625 1.171875l-0.078125 12.328125q0 0.859375 0.125 1.25q0.140625 0.375 0.4375 0.375q0.125 0 0.328125 -0.015625q0.203125 -0.015625 0.703125 -0.0625q0.390625 -0.015625 0.390625 0.25q0 0.203125 -0.140625 0.40625q-0.140625 0.1875 -0.265625 0.1875q-0.859375 0.09375 -1.75 0.328125q-0.890625 0.21875 -1.796875 0.578125q-0.171875 0.078125 -0.265625 0.109375q-0.09375 0.046875 -0.171875 0.046875zm-2.375 -1.71875q0.484375 0 1.0625 -0.234375q0.578125 -0.25 0.984375 -0.6875l0 -5.265625q0 -0.53125 -0.359375 -1.046875q-0.34375 -0.515625 -0.9375 -0.859375q-0.578125 -0.34375 -1.234375 -0.34375q-0.609375 0 -1.1875 0.453125q-0.578125 0.4375 -0.984375 1.34375q-0.390625 0.90625 -0.390625 2.328125q0 1.171875 0.296875 2.0q0.296875 0.8125 0.75 1.328125q0.453125 0.5 0.984375 0.75q0.53125 0.234375 1.015625 0.234375zm18.034424 1.609375q-1.09375 0 -2.078125 -0.28125q-0.96875 -0.265625 -1.765625 -0.828125q-0.15625 -0.125 -0.28125 -0.265625q-0.125 -0.140625 -0.203125 -0.3125q-0.203125 -0.640625 -0.28125 -1.5625q-0.078125 -0.921875 -0.046875 -1.78125q0 -0.1875 0.125 -0.25q0.140625 -0.078125 0.34375 -0.078125q0.203125 0 0.3125 0.0625q0.125 0.0625 0.171875 0.234375q0.5625 1.90625 1.625 2.96875q1.0625 1.0625 2.40625 1.0625q0.828125 0 1.40625 -0.375q0.59375 -0.390625 0.890625 -1.0q0.3125 -0.609375 0.3125 -1.3125q0 -0.890625 -0.328125 -1.46875q-0.3125 -0.578125 -0.953125 -1.046875q-0.625 -0.46875 -1.578125 -1.0q-1.046875 -0.609375 -2.03125 -1.28125q-0.984375 -0.671875 -1.625 -1.59375q-0.625 -0.921875 -0.625 -2.296875q0 -1.421875 0.71875 -2.5q0.71875 -1.078125 2.015625 -1.671875q1.296875 -0.609375 2.984375 -0.609375q0.9375 0 1.75 0.203125q0.8125 0.203125 1.296875 0.40625q0.28125 0.09375 0.40625 0.25q0.140625 0.140625 0.21875 0.484375q0.15625 0.53125 0.265625 1.265625q0.125 0.734375 0.125 1.53125q0 0.3125 -0.46875 0.3125q-0.203125 0 -0.40625 -0.09375q-0.203125 -0.109375 -0.25 -0.28125q-0.453125 -1.46875 -1.25 -2.234375q-0.796875 -0.765625 -1.96875 -0.765625q-0.78125 0 -1.34375 0.265625q-0.546875 0.265625 -0.875 0.8125q-0.328125 0.546875 -0.328125 1.40625q0 0.65625 0.4375 1.21875q0.4375 0.5625 1.234375 1.09375q0.796875 0.53125 1.796875 1.15625q1.203125 0.71875 2.03125 1.4375q0.828125 0.71875 1.25 1.59375q0.4375 0.875 0.4375 2.0625q0 1.671875 -0.734375 2.796875q-0.734375 1.125 -2.0625 1.703125q-1.3125 0.5625 -3.078125 0.5625zm15.774475 0.125q-0.203125 0 -0.203125 -0.21875q0 -0.28125 0.0625 -0.78125q0.0625 -0.515625 0.0625 -0.8125q0 -0.078125 -0.015625 -0.140625q0 -0.0625 0 -0.09375q-0.796875 0.859375 -1.84375 1.390625q-1.046875 0.53125 -2.21875 0.53125q-0.8125 0 -1.453125 -0.421875q-0.640625 -0.4375 -1.015625 -1.1875q-0.359375 -0.765625 -0.359375 -1.78125l0 -4.859375q0 -0.578125 -0.234375 -0.921875q-0.21875 -0.34375 -0.8125 -0.53125q-0.140625 -0.015625 -0.265625 -0.109375q-0.109375 -0.109375 -0.109375 -0.3125q0 -0.203125 0.109375 -0.296875q0.125 -0.109375 0.265625 -0.140625q1.015625 -0.046875 1.75 -0.1875q0.734375 -0.140625 1.578125 -0.34375q0.09375 -0.046875 0.1875 -0.0625q0.109375 -0.03125 0.21875 -0.03125q0.328125 0 0.296875 0.359375q-0.078125 0.578125 -0.125 0.96875q-0.046875 0.390625 -0.046875 0.96875l0 4.890625q0 0.609375 0.21875 1.09375q0.234375 0.484375 0.640625 0.765625q0.40625 0.265625 0.890625 0.296875q0.46875 0 0.890625 -0.09375q0.421875 -0.109375 0.828125 -0.46875q0.203125 -0.140625 0.453125 -0.5625q0.25 -0.421875 0.25 -1.109375l0 -4.25q0 -0.484375 -0.21875 -0.765625q-0.203125 -0.296875 -0.546875 -0.453125q-0.34375 -0.15625 -0.703125 -0.15625q-0.28125 -0.015625 -0.4375 -0.109375q-0.140625 -0.109375 -0.140625 -0.421875q0 -0.25 0.171875 -0.34375q0.1875 -0.109375 0.40625 -0.109375q1.125 -0.078125 1.796875 -0.125q0.6875 -0.046875 1.15625 -0.125q0.46875 -0.078125 0.921875 -0.203125q0.078125 -0.03125 0.15625 -0.03125q0.09375 -0.015625 0.15625 -0.015625q0.34375 0 0.34375 0.28125q0 0.078125 -0.015625 0.171875q0 0.078125 -0.0625 0.171875q-0.015625 0.078125 -0.0625 0.4375q-0.03125 0.359375 -0.078125 0.734375q-0.03125 0.375 -0.03125 0.578125l0 5.875q0 0.609375 0.140625 0.84375q0.140625 0.21875 0.3125 0.21875q0.15625 0 0.4375 0q0.296875 -0.015625 0.421875 -0.015625q0.203125 0 0.328125 0.109375q0.140625 0.09375 0.140625 0.3125q0 0.234375 -0.09375 0.34375q-0.09375 0.109375 -0.3125 0.140625q-1.140625 0.109375 -2.03125 0.40625q-0.890625 0.28125 -1.546875 0.5625q-0.15625 0.046875 -0.328125 0.09375q-0.15625 0.046875 -0.28125 0.046875zm5.925049 -0.421875q-0.203125 0 -0.359375 -0.078125q-0.140625 -0.09375 -0.140625 -0.25q0 -0.203125 0.15625 -0.296875q0.171875 -0.109375 0.421875 -0.1875q0.53125 -0.15625 0.75 -0.359375q0.21875 -0.21875 0.21875 -0.609375l0 -5.6875q0 -0.59375 -0.171875 -0.984375q-0.15625 -0.390625 -0.6875 -0.515625q-0.109375 -0.046875 -0.21875 -0.140625q-0.09375 -0.09375 -0.09375 -0.265625q0 -0.328125 0.28125 -0.40625q0.765625 -0.203125 1.640625 -0.546875q0.890625 -0.34375 1.5 -0.671875q0.125 -0.078125 0.28125 -0.140625q0.15625 -0.078125 0.21875 -0.078125q0.203125 0 0.203125 0.25q0 0.09375 -0.015625 0.453125q0 0.359375 -0.015625 0.78125q-0.015625 0.40625 -0.03125 0.734375q0 0.15625 0.0625 0.15625q0.40625 -0.53125 0.90625 -0.984375q0.515625 -0.453125 1.078125 -0.75q0.578125 -0.3125 1.15625 -0.3125q0.734375 0 1.09375 0.3125q0.375 0.296875 0.375 0.75q0 0.359375 -0.1875 0.765625q-0.1875 0.390625 -0.484375 0.6875q-0.28125 0.296875 -0.640625 0.296875q-0.203125 0 -0.4375 -0.09375q-0.21875 -0.09375 -0.453125 -0.21875q-0.21875 -0.09375 -0.46875 -0.1875q-0.234375 -0.109375 -0.4375 -0.109375q-0.625 0 -1.140625 0.46875q-0.5 0.46875 -0.5 1.828125l0 4.46875q0 0.453125 0.328125 0.703125q0.328125 0.234375 1.015625 0.4375q0.265625 0.0625 0.40625 0.15625q0.140625 0.09375 0.140625 0.296875q0 0.328125 -0.453125 0.328125q-0.765625 0 -1.4375 -0.0625q-0.65625 -0.0625 -1.328125 -0.0625q-0.421875 0 -0.8125 0.03125q-0.390625 0.015625 -0.796875 0.046875q-0.40625 0.046875 -0.921875 0.046875zm9.780457 0q-0.203125 0 -0.359375 -0.078125q-0.140625 -0.09375 -0.140625 -0.25q0 -0.203125 0.125 -0.296875q0.140625 -0.109375 0.375 -0.15625q0.65625 -0.203125 0.875 -0.40625q0.21875 -0.203125 0.21875 -0.65625l0 -7.171875q-0.25 0 -0.59375 -0.015625q-0.328125 -0.015625 -0.734375 -0.03125q-0.125 -0.03125 -0.234375 -0.25q-0.109375 -0.234375 -0.109375 -0.421875q0 -0.0625 0.078125 -0.109375q0.078125 -0.0625 0.125 -0.09375q0.375 -0.171875 0.71875 -0.3125q0.34375 -0.15625 0.75 -0.34375q0.046875 -2.09375 0.65625 -3.515625q0.625 -1.421875 1.5625 -2.265625q0.9375 -0.84375 1.984375 -1.203125q1.0625 -0.375 1.96875 -0.375q1.625 0 2.375 0.46875q0.75 0.46875 0.75 1.34375q0 0.5625 -0.265625 0.875q-0.25 0.3125 -0.671875 0.3125q-0.234375 0 -0.453125 -0.1875q-0.203125 -0.1875 -0.46875 -0.484375q-0.40625 -0.40625 -0.953125 -0.8125q-0.53125 -0.40625 -1.375 -0.40625q-1.0625 0 -1.6875 0.9375q-0.609375 0.9375 -0.609375 2.90625l0 2.15625q0 0.171875 0.09375 0.25q0.109375 0.0625 0.25 0.0625l2.96875 0q0.171875 0 0.265625 0.109375q0.109375 0.109375 0.109375 0.265625q0 0.203125 -0.046875 0.453125q-0.046875 0.234375 -0.15625 0.375q-0.09375 0.203125 -0.203125 0.203125l-2.53125 0q-0.453125 0 -0.609375 0.125q-0.140625 0.109375 -0.140625 0.390625l0 6.484375q0 0.609375 0.296875 0.875q0.3125 0.265625 1.34375 0.4375q0.53125 0.09375 0.53125 0.453125q0 0.15625 -0.125 0.265625q-0.125 0.09375 -0.328125 0.09375q-0.765625 0 -1.609375 -0.0625q-0.828125 -0.0625 -1.484375 -0.0625q-0.421875 0 -0.8125 0.03125q-0.375 0.015625 -0.796875 0.046875q-0.40625 0.046875 -0.921875 0.046875zm10.366272 0.28125q-0.609375 0 -1.15625 -0.328125q-0.546875 -0.328125 -0.875 -0.859375q-0.328125 -0.546875 -0.328125 -1.09375q0 -0.859375 0.5 -1.40625q0.515625 -0.546875 1.53125 -0.984375l2.34375 -1.0q0.515625 -0.203125 0.625 -0.375q0.109375 -0.1875 0.109375 -0.671875l0.0625 -1.5q0.015625 -0.703125 -0.296875 -1.125q-0.3125 -0.4375 -0.953125 -0.4375q-0.328125 0 -0.6875 0.125q-0.34375 0.125 -0.546875 0.328125q-0.109375 0.109375 -0.15625 0.28125q-0.03125 0.15625 -0.03125 0.296875q0 0.140625 0.015625 0.328125q0.015625 0.1875 0.015625 0.34375q0 0.140625 -0.390625 0.375q-0.375 0.21875 -0.859375 0.40625q-0.46875 0.171875 -0.796875 0.171875q-0.1875 0 -0.296875 -0.125q-0.09375 -0.125 -0.09375 -0.296875q0 -0.40625 0.265625 -0.828125q0.265625 -0.421875 0.859375 -0.90625q0.625 -0.53125 1.375 -0.9375q0.765625 -0.421875 1.484375 -0.671875q0.734375 -0.265625 1.265625 -0.265625q1.21875 0 1.953125 0.8125q0.734375 0.796875 0.703125 2.078125l-0.125 5.421875q-0.03125 0.5625 0.203125 0.9375q0.25 0.375 0.609375 0.375q0.53125 0 0.859375 -0.296875q0.09375 -0.109375 0.171875 -0.109375q0.125 0 0.21875 0.09375q0.09375 0.09375 0.09375 0.21875q0 0.28125 -0.40625 0.6875q-0.453125 0.453125 -0.984375 0.6875q-0.515625 0.25 -1.015625 0.25q-1.34375 0 -2.1875 -1.390625l-0.0625 0q-0.84375 0.734375 -1.546875 1.0625q-0.6875 0.328125 -1.46875 0.328125zm1.390625 -1.53125q0.34375 0 0.59375 -0.109375q0.265625 -0.109375 0.4375 -0.3125q0.109375 -0.125 0.171875 -0.296875q0.0625 -0.1875 0.078125 -0.515625l0.0625 -1.625q0.015625 -0.25 -0.0625 -0.328125q-0.0625 -0.09375 -0.171875 -0.09375q-0.046875 0 -0.15625 0.015625q-0.09375 0 -0.21875 0.078125q-0.9375 0.390625 -1.34375 0.828125q-0.40625 0.421875 -0.40625 1.09375q0 0.6875 0.328125 0.984375q0.328125 0.28125 0.6875 0.28125zm11.576965 1.53125q-1.328125 0 -2.390625 -0.6875q-1.0625 -0.6875 -1.6875 -1.890625q-0.609375 -1.203125 -0.609375 -2.6875q0 -1.65625 0.75 -2.984375q0.765625 -1.328125 2.015625 -2.109375q1.265625 -0.796875 2.796875 -0.796875q1.9375 0 3.25 1.21875q0.25 0.234375 0.25 0.453125q0 0.1875 -0.203125 0.46875q-0.203125 0.265625 -0.484375 0.46875q-0.28125 0.203125 -0.46875 0.203125q-0.203125 0 -0.390625 -0.125q-0.171875 -0.125 -0.34375 -0.28125q-0.640625 -0.5 -1.328125 -0.84375q-0.6875 -0.359375 -1.15625 -0.359375q-1.046875 0 -1.625 0.90625q-0.578125 0.90625 -0.578125 2.734375q0 1.234375 0.421875 2.15625q0.4375 0.90625 1.21875 1.421875q0.78125 0.5 1.828125 0.5q0.75 0 1.296875 -0.234375q0.546875 -0.25 1.15625 -0.78125q0.09375 -0.078125 0.1875 -0.140625q0.09375 -0.0625 0.1875 -0.0625q0.28125 0 0.28125 0.40625q0 0.109375 -0.046875 0.296875q-0.046875 0.1875 -0.203125 0.421875q-0.28125 0.5 -0.90625 1.0625q-0.609375 0.546875 -1.421875 0.90625q-0.8125 0.359375 -1.796875 0.359375zm10.156555 0q-1.40625 0 -2.46875 -0.703125q-1.0625 -0.71875 -1.671875 -1.96875q-0.59375 -1.265625 -0.59375 -2.859375q0 -1.546875 0.71875 -2.8125q0.71875 -1.28125 1.9375 -2.046875q1.21875 -0.765625 2.65625 -0.765625q1.0625 0 1.890625 0.453125q0.84375 0.4375 1.328125 1.21875q0.5 0.765625 0.5 1.734375q0 0.90625 -0.78125 0.90625l-5.140625 0q-0.359375 0 -0.53125 0.1875q-0.15625 0.1875 -0.15625 0.703125q0 1.0625 0.46875 1.921875q0.46875 0.859375 1.25 1.375q0.796875 0.5 1.796875 0.5q0.734375 0 1.359375 -0.28125q0.625 -0.296875 1.1875 -0.8125q0.09375 -0.078125 0.171875 -0.140625q0.078125 -0.0625 0.15625 -0.0625q0.25 0 0.25 0.3125q0 0.34375 -0.3125 0.859375q-0.296875 0.578125 -0.875 1.109375q-0.5625 0.53125 -1.375 0.84375q-0.8125 0.328125 -1.765625 0.328125zm-1.625 -7.828125l1.796875 0q0.65625 0 0.984375 -0.015625q0.328125 -0.03125 0.640625 -0.109375q0.125 -0.03125 0.171875 -0.21875q0.046875 -0.1875 0.046875 -0.4375q0 -0.6875 -0.515625 -1.15625q-0.515625 -0.46875 -1.28125 -0.46875q-0.53125 0 -1.046875 0.3125q-0.5 0.3125 -0.828125 0.796875q-0.328125 0.484375 -0.296875 0.984375q0 0.3125 0.328125 0.3125z" fill-rule="nonzero"/><path fill="#000000" fill-opacity="0.0" d="m228.06036 153.10498c34.77304 0 52.16028 -16.574799 69.54608 -33.149597c17.385834 -16.574806 34.770264 -33.149612 69.54053 -33.149612" fill-rule="evenodd"/><path stroke="#000000" stroke-width="2.0" stroke-linejoin="round" stroke-linecap="butt" d="m228.06036 153.10498c34.77304 0 52.16028 -16.574799 69.54611 -33.149597c8.692902 -8.287407 17.385468 -16.574806 28.251099 -22.79036c5.4328003 -3.1077728 11.4088745 -5.697586 18.19989 -7.5104523c3.3955078 -0.90644073 6.994751 -1.6186371 10.831696 -2.1042328l0.27886963 -0.034118652" fill-rule="evenodd"/><path fill="#000000" stroke="#000000" stroke-width="2.0" stroke-linecap="butt" d="m355.36362 90.81389l8.864685 -3.8350143l-9.255859 -2.7603302z" fill-rule="evenodd"/><path fill="#000000" fill-opacity="0.0" d="m572.03546 86.80577c30.914612 0 46.372498 16.574806 61.829224 33.149612c15.456665 16.574799 30.91217 33.149597 61.82428 33.149597" fill-rule="evenodd"/><path stroke="#000000" stroke-width="2.0" stroke-linejoin="round" stroke-linecap="butt" d="m572.03546 86.80577c30.914612 0 46.372498 16.574806 61.829224 33.149612c7.7283325 8.287399 15.45636 16.574799 25.116333 22.790344c4.830017 3.107788 10.142944 5.6976013 16.18042 7.5104675c1.5093994 0.45321655 3.0640259 0.85787964 4.6677246 1.2099304c0.8018799 0.17601013 1.6160278 0.3388977 2.442871 0.4881134c0.4133911 0.07461548 0.8300171 0.14581299 1.2498779 0.2135315l0.20129395 0.03149414" fill-rule="evenodd"/><path fill="#000000" stroke="#000000" stroke-width="2.0" stroke-linecap="butt" d="m683.4739 155.49332l9.299622 -2.6090088l-8.800964 -3.9790802z" fill-rule="evenodd"/></g></svg>