<svg version="1.1" viewBox="0.0 0.0 616.2834645669292 512.5695538057743" fill="none" stroke="none" stroke-linecap="square" stroke-miterlimit="10" xmlns:xlink="http://www.w3.org/1999/xlink" xmlns="http://www.w3.org/2000/svg"><clipPath id="p.0"><path d="m0 0l616.28345 0l0 512.5696l-616.28345 0l0 -512.5696z" clip-rule="nonzero"/></clipPath><g clip-path="url(#p.0)"><path fill="#000000" fill-opacity="0.0" d="m0 0l616.28345 0l0 512.5696l-616.28345 0z" fill-rule="evenodd"/><path fill="#efefef" d="m47.49344 223.66667l0 0c0 -102.03787 82.71803 -184.7559 184.7559 -184.7559l0 0c49.00032 0 95.9937 19.465298 130.64217 54.11375c34.648438 34.648453 54.11374 81.64184 54.11374 130.64215l0 0c0 102.03786 -82.71805 184.7559 -184.7559 184.7559l0 0c-102.03787 0 -184.7559 -82.71805 -184.7559 -184.7559z" fill-rule="evenodd"/><path stroke="#000000" stroke-width="3.0" stroke-linejoin="round" stroke-linecap="butt" d="m47.49344 223.66667l0 0c0 -102.03787 82.71803 -184.7559 184.7559 -184.7559l0 0c49.00032 0 95.9937 19.465298 130.64217 54.11375c34.648438 34.648453 54.11374 81.64184 54.11374 130.64215l0 0c0 102.03786 -82.71805 184.7559 -184.7559 184.7559l0 0c-102.03787 0 -184.7559 -82.71805 -184.7559 -184.7559z" fill-rule="evenodd"/><path fill="#efefef" d="m119.86614 223.66142l0 0c0 -62.064636 50.313316 -112.37796 112.37795 -112.37796l0 0c29.80449 0 58.38826 11.83979 79.46321 32.91475c21.074951 21.074951 32.914734 49.658722 32.914734 79.46321l0 0c0 62.06462 -50.313324 112.377945 -112.377945 112.377945l0 0c-62.064636 0 -112.37795 -50.313324 -112.37795 -112.377945z" fill-rule="evenodd"/><path stroke="#000000" stroke-width="3.0" stroke-linejoin="round" stroke-linecap="butt" stroke-dasharray="12.0,9.0" d="m119.86614 223.66142l0 0c0 -62.064636 50.313316 -112.37796 112.37795 -112.37796l0 0c29.80449 0 58.38826 11.83979 79.46321 32.91475c21.074951 21.074951 32.914734 49.658722 32.914734 79.46321l0 0c0 62.06462 -50.313324 112.377945 -112.377945 112.377945l0 0c-62.064636 0 -112.37795 -50.313324 -112.37795 -112.377945z" fill-rule="evenodd"/><path fill="#000000" fill-opacity="0.0" d="m230.57654 220.8915l132.31497 133.41731" fill-rule="evenodd"/><path stroke="#e69138" stroke-width="3.0" stroke-linejoin="round" stroke-linecap="butt" d="m238.58292 228.96458l117.06882 118.044205" fill-rule="evenodd"/><path fill="#e69138" stroke="#e69138" stroke-width="3.0" stroke-linecap="butt" d="m231.6328 221.95656c1.9352112 -1.91922 5.05986 -1.9062653 6.97908 0.028945923c1.9192352 1.9352264 1.9062653 5.05986 -0.028945923 6.9790955c-1.9352112 1.91922 -5.05986 1.90625 -6.97908 -0.028961182c-1.9192352 -1.9352112 -1.9062653 -5.05986 0.028945923 -6.97908z" fill-rule="nonzero"/><path fill="#e69138" stroke="#e69138" stroke-width="3.0" stroke-linecap="butt" d="m355.65176 347.00876l-4.771179 -0.01977539l8.922638 4.2058105l-4.1316833 -8.957184z" fill-rule="evenodd"/><path fill="#000000" fill-opacity="0.0" d="m344.62204 223.66142l72.37796 0" fill-rule="evenodd"/><path stroke="#45818e" stroke-width="3.0" stroke-linejoin="round" stroke-linecap="butt" d="m354.9033 223.66142l51.81546 0" fill-rule="evenodd"/><path fill="#45818e" stroke="#45818e" stroke-width="3.0" stroke-linecap="butt" d="m354.90332 223.66142l3.3737488 -3.3737488l-9.269318 3.3737488l9.269318 3.3737488z" fill-rule="evenodd"/><path fill="#45818e" stroke="#45818e" stroke-width="3.0" stroke-linecap="butt" d="m406.71875 223.66142l-3.3737488 3.3737488l9.269287 -3.3737488l-9.269287 -3.3737488z" fill-rule="evenodd"/><path fill="#000000" fill-opacity="0.0" d="m373.8609 360.0l113.35431 0l0 48.472443l-113.35431 0z" fill-rule="evenodd"/><path fill="#e69138" d="m410.15134 391.63376q0 0.140625 -0.046875 0.234375q-0.046875 0.078125 -0.234375 0.140625q-0.171875 0.0625 -0.515625 0.078125q-0.328125 0.03125 -0.921875 0.03125q-0.484375 0 -0.78125 -0.03125q-0.296875 -0.015625 -0.46875 -0.078125q-0.15625 -0.078125 -0.234375 -0.171875q-0.0625 -0.109375 -0.109375 -0.25l-1.359375 -3.375q-0.25 -0.578125 -0.484375 -1.015625q-0.234375 -0.453125 -0.53125 -0.75q-0.28125 -0.296875 -0.65625 -0.453125q-0.375 -0.15625 -0.859375 -0.15625l-0.96875 0l0 5.78125q0 0.109375 -0.078125 0.203125q-0.078125 0.09375 -0.25 0.15625q-0.171875 0.0625 -0.46875 0.09375q-0.296875 0.046875 -0.75 0.046875q-0.4375 0 -0.75 -0.046875q-0.296875 -0.03125 -0.46875 -0.09375q-0.171875 -0.0625 -0.25 -0.15625q-0.0625 -0.09375 -0.0625 -0.203125l0 -13.765625q0 -0.515625 0.265625 -0.75q0.265625 -0.234375 0.640625 -0.234375l3.9375 0q0.59375 0 0.96875 0.03125q0.390625 0.015625 0.71875 0.0625q0.90625 0.125 1.640625 0.4375q0.734375 0.3125 1.234375 0.828125q0.515625 0.515625 0.78125 1.21875q0.28125 0.6875 0.28125 1.59375q0 0.75 -0.203125 1.390625q-0.1875 0.625 -0.5625 1.125q-0.375 0.484375 -0.9375 0.84375q-0.546875 0.359375 -1.25 0.578125q0.34375 0.171875 0.640625 0.40625q0.296875 0.234375 0.5625 0.578125q0.265625 0.328125 0.5 0.75q0.234375 0.421875 0.453125 0.96875l1.28125 2.984375q0.171875 0.453125 0.234375 0.65625q0.0625 0.203125 0.0625 0.3125zm-3.96875 -10.28125q0 -0.75 -0.34375 -1.265625q-0.34375 -0.515625 -1.109375 -0.734375q-0.234375 -0.046875 -0.546875 -0.078125q-0.296875 -0.046875 -0.8125 -0.046875l-1.390625 0l0 4.296875l1.578125 0q0.65625 0 1.140625 -0.15625q0.5 -0.15625 0.828125 -0.4375q0.328125 -0.296875 0.484375 -0.6875q0.171875 -0.40625 0.171875 -0.890625zm14.964844 10.328125q0 0.15625 -0.125 0.25q-0.109375 0.09375 -0.375 0.140625q-0.25 0.046875 -0.734375 0.046875q-0.53125 0 -0.78125 -0.046875q-0.234375 -0.046875 -0.328125 -0.140625q-0.09375 -0.09375 -0.09375 -0.25l0 -0.84375q-0.65625 0.703125 -1.484375 1.09375q-0.8125 0.375 -1.828125 0.375q-0.828125 0 -1.53125 -0.21875q-0.6875 -0.21875 -1.203125 -0.640625q-0.515625 -0.421875 -0.796875 -1.046875q-0.28125 -0.640625 -0.28125 -1.484375q0 -0.921875 0.359375 -1.59375q0.359375 -0.671875 1.0625 -1.109375q0.71875 -0.4375 1.765625 -0.640625q1.0625 -0.21875 2.453125 -0.21875l1.015625 0l0 -0.640625q0 -0.484375 -0.09375 -0.859375q-0.09375 -0.375 -0.328125 -0.609375q-0.234375 -0.25 -0.609375 -0.359375q-0.375 -0.125 -0.9375 -0.125q-0.75 0 -1.328125 0.171875q-0.578125 0.15625 -1.03125 0.359375q-0.4375 0.1875 -0.734375 0.359375q-0.296875 0.15625 -0.484375 0.15625q-0.125 0 -0.234375 -0.078125q-0.09375 -0.078125 -0.15625 -0.234375q-0.0625 -0.15625 -0.109375 -0.375q-0.03125 -0.21875 -0.03125 -0.484375q0 -0.375 0.0625 -0.578125q0.0625 -0.21875 0.21875 -0.375q0.171875 -0.171875 0.578125 -0.375q0.40625 -0.21875 0.953125 -0.390625q0.5625 -0.171875 1.203125 -0.28125q0.65625 -0.109375 1.34375 -0.109375q1.234375 0 2.109375 0.234375q0.875 0.234375 1.4375 0.734375q0.5625 0.5 0.8125 1.296875q0.265625 0.78125 0.265625 1.859375l0 7.03125zm-2.90625 -4.484375l-1.125 0q-0.703125 0 -1.21875 0.109375q-0.5 0.109375 -0.8125 0.328125q-0.3125 0.203125 -0.46875 0.5q-0.140625 0.296875 -0.140625 0.6875q0 0.65625 0.40625 1.03125q0.421875 0.375 1.15625 0.375q0.625 0 1.140625 -0.3125q0.53125 -0.328125 1.0625 -0.9375l0 -1.78125zm15.753906 4.4375q0 0.140625 -0.0625 0.234375q-0.046875 0.078125 -0.1875 0.140625q-0.140625 0.0625 -0.390625 0.078125q-0.234375 0.03125 -0.59375 0.03125q-0.375 0 -0.609375 -0.03125q-0.234375 -0.015625 -0.375 -0.078125q-0.140625 -0.0625 -0.21875 -0.140625q-0.0625 -0.09375 -0.0625 -0.234375l0 -1.15625q-0.796875 0.875 -1.6875 1.359375q-0.890625 0.46875 -1.96875 0.46875q-1.1875 0 -2.015625 -0.453125q-0.828125 -0.46875 -1.359375 -1.25q-0.515625 -0.796875 -0.75 -1.84375q-0.234375 -1.046875 -0.234375 -2.203125q0 -1.390625 0.296875 -2.5q0.3125 -1.125 0.875 -1.90625q0.578125 -0.78125 1.4375 -1.203125q0.859375 -0.421875 1.96875 -0.421875q0.875 0 1.59375 0.359375q0.71875 0.34375 1.421875 1.046875l0 -5.671875q0 -0.109375 0.0625 -0.203125q0.0625 -0.09375 0.234375 -0.15625q0.171875 -0.0625 0.453125 -0.09375q0.28125 -0.046875 0.703125 -0.046875q0.4375 0 0.71875 0.046875q0.28125 0.03125 0.4375 0.09375q0.171875 0.0625 0.234375 0.15625q0.078125 0.09375 0.078125 0.203125l0 15.375zm-2.921875 -6.984375q-0.640625 -0.796875 -1.21875 -1.21875q-0.578125 -0.421875 -1.21875 -0.421875q-0.5625 0 -0.984375 0.296875q-0.421875 0.28125 -0.671875 0.765625q-0.25 0.484375 -0.375 1.078125q-0.125 0.578125 -0.125 1.203125q0 0.65625 0.109375 1.28125q0.109375 0.625 0.34375 1.109375q0.25 0.484375 0.640625 0.78125q0.40625 0.28125 1.015625 0.28125q0.296875 0 0.578125 -0.078125q0.296875 -0.09375 0.59375 -0.28125q0.296875 -0.203125 0.609375 -0.53125q0.328125 -0.328125 0.703125 -0.796875l0 -3.46875zm8.847656 6.984375q0 0.125 -0.078125 0.21875q-0.0625 0.078125 -0.234375 0.140625q-0.171875 0.0625 -0.453125 0.09375q-0.28125 0.03125 -0.71875 0.03125q-0.4375 0 -0.71875 -0.03125q-0.28125 -0.03125 -0.453125 -0.09375q-0.15625 -0.0625 -0.234375 -0.140625q-0.0625 -0.09375 -0.0625 -0.21875l0 -10.421875q0 -0.125 0.0625 -0.203125q0.078125 -0.09375 0.234375 -0.15625q0.171875 -0.0625 0.453125 -0.09375q0.28125 -0.046875 0.71875 -0.046875q0.4375 0 0.71875 0.046875q0.28125 0.03125 0.453125 0.09375q0.171875 0.0625 0.234375 0.15625q0.078125 0.078125 0.078125 0.203125l0 10.421875zm0.21875 -13.984375q0 0.890625 -0.375 1.234375q-0.359375 0.328125 -1.34375 0.328125q-0.984375 0 -1.34375 -0.328125q-0.34375 -0.328125 -0.34375 -1.171875q0 -0.890625 0.359375 -1.234375q0.359375 -0.359375 1.359375 -0.359375q0.984375 0 1.328125 0.34375q0.359375 0.328125 0.359375 1.1875zm12.628906 13.984375q0 0.125 -0.0625 0.21875q-0.046875 0.078125 -0.203125 0.140625q-0.140625 0.0625 -0.390625 0.09375q-0.234375 0.03125 -0.59375 0.03125q-0.390625 0 -0.640625 -0.03125q-0.234375 -0.03125 -0.375 -0.09375q-0.140625 -0.0625 -0.203125 -0.140625q-0.046875 -0.09375 -0.046875 -0.21875l0 -1.203125q-0.875 0.9375 -1.765625 1.40625q-0.890625 0.46875 -1.859375 0.46875q-1.078125 0 -1.8125 -0.34375q-0.734375 -0.359375 -1.1875 -0.96875q-0.4375 -0.609375 -0.640625 -1.40625q-0.1875 -0.8125 -0.1875 -2.0l0 -6.40625q0 -0.109375 0.0625 -0.1875q0.0625 -0.09375 0.234375 -0.15625q0.171875 -0.0625 0.453125 -0.09375q0.296875 -0.03125 0.71875 -0.03125q0.421875 0 0.703125 0.03125q0.28125 0.03125 0.453125 0.09375q0.171875 0.0625 0.234375 0.15625q0.078125 0.078125 0.078125 0.1875l0 5.90625q0 0.828125 0.109375 1.265625q0.109375 0.421875 0.3125 0.734375q0.21875 0.3125 0.546875 0.484375q0.34375 0.171875 0.796875 0.171875q0.5625 0 1.125 -0.40625q0.5625 -0.421875 1.21875 -1.203125l0 -6.953125q0 -0.109375 0.0625 -0.1875q0.0625 -0.09375 0.234375 -0.15625q0.171875 -0.0625 0.453125 -0.09375q0.28125 -0.03125 0.703125 -0.03125q0.4375 0 0.71875 0.03125q0.28125 0.03125 0.4375 0.09375q0.171875 0.0625 0.234375 0.15625q0.078125 0.078125 0.078125 0.1875l0 10.453125zm10.332031 -2.953125q0 0.890625 -0.34375 1.578125q-0.328125 0.671875 -0.9375 1.140625q-0.609375 0.453125 -1.453125 0.671875q-0.828125 0.234375 -1.796875 0.234375q-0.578125 0 -1.125 -0.09375q-0.53125 -0.078125 -0.953125 -0.203125q-0.421875 -0.140625 -0.703125 -0.28125q-0.28125 -0.140625 -0.40625 -0.265625q-0.125 -0.125 -0.203125 -0.390625q-0.0625 -0.265625 -0.0625 -0.78125q0 -0.34375 0.015625 -0.546875q0.03125 -0.203125 0.078125 -0.328125q0.046875 -0.125 0.109375 -0.15625q0.078125 -0.046875 0.1875 -0.046875q0.125 0 0.375 0.15625q0.25 0.140625 0.625 0.3125q0.375 0.171875 0.875 0.328125q0.5 0.15625 1.125 0.15625q0.40625 0 0.71875 -0.078125q0.3125 -0.09375 0.53125 -0.234375q0.234375 -0.15625 0.34375 -0.390625q0.125 -0.234375 0.125 -0.546875q0 -0.34375 -0.21875 -0.59375q-0.21875 -0.25 -0.578125 -0.4375q-0.359375 -0.1875 -0.8125 -0.34375q-0.4375 -0.171875 -0.921875 -0.375q-0.46875 -0.203125 -0.921875 -0.453125q-0.453125 -0.265625 -0.8125 -0.640625q-0.359375 -0.375 -0.578125 -0.890625q-0.203125 -0.53125 -0.203125 -1.28125q0 -0.75 0.28125 -1.375q0.296875 -0.625 0.84375 -1.0625q0.5625 -0.453125 1.34375 -0.6875q0.796875 -0.25 1.78125 -0.25q0.484375 0 0.953125 0.078125q0.46875 0.0625 0.84375 0.171875q0.375 0.09375 0.625 0.21875q0.265625 0.125 0.375 0.21875q0.109375 0.078125 0.15625 0.171875q0.046875 0.078125 0.0625 0.203125q0.03125 0.125 0.046875 0.3125q0.015625 0.171875 0.015625 0.453125q0 0.3125 -0.015625 0.515625q-0.015625 0.1875 -0.0625 0.3125q-0.03125 0.109375 -0.109375 0.15625q-0.0625 0.046875 -0.15625 0.046875q-0.109375 0 -0.34375 -0.125q-0.21875 -0.125 -0.546875 -0.265625q-0.328125 -0.140625 -0.78125 -0.265625q-0.4375 -0.125 -1.0 -0.125q-0.390625 0 -0.6875 0.09375q-0.296875 0.078125 -0.484375 0.234375q-0.1875 0.140625 -0.28125 0.34375q-0.09375 0.203125 -0.09375 0.4375q0 0.375 0.21875 0.625q0.234375 0.234375 0.59375 0.421875q0.359375 0.1875 0.828125 0.359375q0.46875 0.15625 0.9375 0.359375q0.46875 0.1875 0.9375 0.453125q0.46875 0.25 0.828125 0.625q0.359375 0.375 0.578125 0.90625q0.234375 0.515625 0.234375 1.21875z" fill-rule="nonzero"/><path fill="#000000" fill-opacity="0.0" d="m434.37534 199.4252l164.03146 0l0 48.472443l-164.03146 0z" fill-rule="evenodd"/><path fill="#45818e" d="m459.4985 217.55894q0 0.359375 -0.03125 0.609375q-0.015625 0.234375 -0.09375 0.375q-0.0625 0.140625 -0.140625 0.21875q-0.078125 0.0625 -0.1875 0.0625l-4.953125 0l0 4.078125l4.65625 0q0.09375 0 0.171875 0.0625q0.09375 0.046875 0.15625 0.1875q0.0625 0.140625 0.09375 0.375q0.03125 0.234375 0.03125 0.59375q0 0.34375 -0.03125 0.578125q-0.03125 0.234375 -0.09375 0.390625q-0.0625 0.15625 -0.15625 0.21875q-0.078125 0.0625 -0.171875 0.0625l-4.65625 0l0 5.640625q0 0.140625 -0.078125 0.234375q-0.0625 0.09375 -0.25 0.15625q-0.171875 0.0625 -0.46875 0.09375q-0.296875 0.046875 -0.75 0.046875q-0.453125 0 -0.75 -0.046875q-0.296875 -0.03125 -0.46875 -0.09375q-0.171875 -0.0625 -0.25 -0.15625q-0.078125 -0.09375 -0.078125 -0.234375l0 -13.734375q0 -0.515625 0.265625 -0.75q0.265625 -0.234375 0.640625 -0.234375l7.140625 0q0.109375 0 0.1875 0.078125q0.078125 0.0625 0.140625 0.203125q0.078125 0.140625 0.09375 0.390625q0.03125 0.25 0.03125 0.59375zm10.59375 13.546875q0 0.15625 -0.125 0.25q-0.109375 0.09375 -0.375 0.140625q-0.25 0.046875 -0.734375 0.046875q-0.53125 0 -0.78125 -0.046875q-0.234375 -0.046875 -0.328125 -0.140625q-0.09375 -0.09375 -0.09375 -0.25l0 -0.84375q-0.65625 0.703125 -1.484375 1.09375q-0.8125 0.375 -1.828125 0.375q-0.828125 0 -1.53125 -0.21875q-0.6875 -0.21875 -1.203125 -0.640625q-0.515625 -0.421875 -0.796875 -1.046875q-0.28125 -0.640625 -0.28125 -1.484375q0 -0.921875 0.359375 -1.59375q0.359375 -0.671875 1.0625 -1.109375q0.71875 -0.4375 1.765625 -0.640625q1.0625 -0.21875 2.453125 -0.21875l1.015625 0l0 -0.640625q0 -0.484375 -0.09375 -0.859375q-0.09375 -0.375 -0.328125 -0.609375q-0.234375 -0.25 -0.609375 -0.359375q-0.375 -0.125 -0.9375 -0.125q-0.75 0 -1.328125 0.171875q-0.578125 0.15625 -1.03125 0.359375q-0.4375 0.1875 -0.734375 0.359375q-0.296875 0.15625 -0.484375 0.15625q-0.125 0 -0.234375 -0.078125q-0.09375 -0.078125 -0.15625 -0.234375q-0.0625 -0.15625 -0.109375 -0.375q-0.03125 -0.21875 -0.03125 -0.484375q0 -0.375 0.0625 -0.578125q0.0625 -0.21875 0.21875 -0.375q0.171875 -0.171875 0.578125 -0.375q0.40625 -0.21875 0.953125 -0.390625q0.5625 -0.171875 1.203125 -0.28125q0.65625 -0.109375 1.34375 -0.109375q1.234375 0 2.109375 0.234375q0.875 0.234375 1.4375 0.734375q0.5625 0.5 0.8125 1.296875q0.265625 0.78125 0.265625 1.859375l0 7.03125zm-2.90625 -4.484375l-1.125 0q-0.703125 0 -1.21875 0.109375q-0.5 0.109375 -0.8125 0.328125q-0.3125 0.203125 -0.46875 0.5q-0.140625 0.296875 -0.140625 0.6875q0 0.65625 0.40625 1.03125q0.421875 0.375 1.15625 0.375q0.625 0 1.140625 -0.3125q0.53125 -0.328125 1.0625 -0.9375l0 -1.78125zm8.800781 4.4375q0 0.125 -0.078125 0.21875q-0.0625 0.078125 -0.234375 0.140625q-0.171875 0.0625 -0.453125 0.09375q-0.28125 0.03125 -0.71875 0.03125q-0.4375 0 -0.71875 -0.03125q-0.28125 -0.03125 -0.453125 -0.09375q-0.15625 -0.0625 -0.234375 -0.140625q-0.0625 -0.09375 -0.0625 -0.21875l0 -15.40625q0 -0.109375 0.0625 -0.203125q0.078125 -0.09375 0.234375 -0.15625q0.171875 -0.078125 0.453125 -0.109375q0.28125 -0.03125 0.71875 -0.03125q0.4375 0 0.71875 0.03125q0.28125 0.03125 0.453125 0.109375q0.171875 0.0625 0.234375 0.15625q0.078125 0.09375 0.078125 0.203125l0 15.40625zm5.8945312 0q0 0.125 -0.078125 0.21875q-0.0625 0.078125 -0.234375 0.140625q-0.171875 0.0625 -0.453125 0.09375q-0.28125 0.03125 -0.71875 0.03125q-0.4375 0 -0.71875 -0.03125q-0.28125 -0.03125 -0.453125 -0.09375q-0.15625 -0.0625 -0.234375 -0.140625q-0.0625 -0.09375 -0.0625 -0.21875l0 -15.40625q0 -0.109375 0.0625 -0.203125q0.078125 -0.09375 0.234375 -0.15625q0.171875 -0.078125 0.453125 -0.109375q0.28125 -0.03125 0.71875 -0.03125q0.4375 0 0.71875 0.03125q0.28125 0.03125 0.453125 0.109375q0.171875 0.0625 0.234375 0.15625q0.078125 0.09375 0.078125 0.203125l0 15.40625zm13.503906 -5.328125q0 1.34375 -0.359375 2.453125q-0.34375 1.09375 -1.0625 1.890625q-0.703125 0.796875 -1.78125 1.234375q-1.078125 0.421875 -2.53125 0.421875q-1.390625 0 -2.421875 -0.375q-1.03125 -0.390625 -1.71875 -1.125q-0.671875 -0.75 -1.0 -1.828125q-0.328125 -1.078125 -0.328125 -2.453125q0 -1.34375 0.359375 -2.453125q0.359375 -1.109375 1.0625 -1.890625q0.71875 -0.796875 1.796875 -1.21875q1.078125 -0.4375 2.515625 -0.4375q1.40625 0 2.4375 0.375q1.03125 0.375 1.703125 1.125q0.671875 0.734375 1.0 1.8125q0.328125 1.078125 0.328125 2.46875zm-3.03125 0.125q0 -0.78125 -0.125 -1.421875q-0.125 -0.65625 -0.421875 -1.140625q-0.28125 -0.484375 -0.78125 -0.75q-0.484375 -0.265625 -1.21875 -0.265625q-0.65625 0 -1.15625 0.25q-0.484375 0.234375 -0.796875 0.703125q-0.3125 0.453125 -0.484375 1.109375q-0.15625 0.640625 -0.15625 1.46875q0 0.78125 0.125 1.4375q0.140625 0.640625 0.421875 1.125q0.296875 0.484375 0.78125 0.75q0.5 0.25 1.21875 0.25q0.671875 0 1.15625 -0.234375q0.5 -0.234375 0.8125 -0.6875q0.3125 -0.46875 0.46875 -1.109375q0.15625 -0.65625 0.15625 -1.484375zm11.667969 -9.234375q0 0.34375 -0.03125 0.546875q-0.015625 0.203125 -0.0625 0.328125q-0.046875 0.109375 -0.109375 0.15625q-0.046875 0.03125 -0.125 0.03125q-0.078125 0 -0.1875 -0.03125q-0.09375 -0.046875 -0.25 -0.09375q-0.140625 -0.046875 -0.34375 -0.09375q-0.1875 -0.046875 -0.453125 -0.046875q-0.328125 0 -0.5625 0.109375q-0.21875 0.09375 -0.375 0.3125q-0.140625 0.21875 -0.21875 0.5625q-0.0625 0.34375 -0.0625 0.84375l0 0.96875l1.90625 0q0.109375 0 0.1875 0.0625q0.09375 0.046875 0.140625 0.1875q0.0625 0.140625 0.09375 0.375q0.03125 0.234375 0.03125 0.5625q0 0.65625 -0.125 0.9375q-0.109375 0.265625 -0.328125 0.265625l-1.90625 0l0 8.453125q0 0.125 -0.078125 0.21875q-0.0625 0.078125 -0.234375 0.140625q-0.15625 0.0625 -0.453125 0.09375q-0.296875 0.03125 -0.71875 0.03125q-0.421875 0 -0.71875 -0.03125q-0.28125 -0.03125 -0.453125 -0.09375q-0.15625 -0.0625 -0.234375 -0.140625q-0.0625 -0.09375 -0.0625 -0.21875l0 -8.453125l-1.3125 0q-0.21875 0 -0.328125 -0.265625q-0.109375 -0.28125 -0.109375 -0.9375q0 -0.328125 0.03125 -0.5625q0.03125 -0.234375 0.078125 -0.375q0.046875 -0.140625 0.140625 -0.1875q0.09375 -0.0625 0.203125 -0.0625l1.296875 0l0 -0.875q0 -1.078125 0.203125 -1.875q0.21875 -0.796875 0.671875 -1.328125q0.453125 -0.546875 1.140625 -0.8125q0.703125 -0.265625 1.65625 -0.265625q0.453125 0 0.859375 0.078125q0.421875 0.078125 0.65625 0.171875q0.234375 0.078125 0.3125 0.15625q0.078125 0.078125 0.125 0.21875q0.0625 0.140625 0.078125 0.375q0.03125 0.234375 0.03125 0.5625zm7.59375 0q0 0.34375 -0.03125 0.546875q-0.015625 0.203125 -0.0625 0.328125q-0.046875 0.109375 -0.109375 0.15625q-0.046875 0.03125 -0.125 0.03125q-0.078125 0 -0.1875 -0.03125q-0.09375 -0.046875 -0.25 -0.09375q-0.140625 -0.046875 -0.34375 -0.09375q-0.1875 -0.046875 -0.453125 -0.046875q-0.328125 0 -0.5625 0.109375q-0.21875 0.09375 -0.375 0.3125q-0.140625 0.21875 -0.21875 0.5625q-0.0625 0.34375 -0.0625 0.84375l0 0.96875l1.90625 0q0.109375 0 0.1875 0.0625q0.09375 0.046875 0.140625 0.1875q0.0625 0.140625 0.09375 0.375q0.03125 0.234375 0.03125 0.5625q0 0.65625 -0.125 0.9375q-0.109375 0.265625 -0.328125 0.265625l-1.90625 0l0 8.453125q0 0.125 -0.078125 0.21875q-0.0625 0.078125 -0.234375 0.140625q-0.15625 0.0625 -0.453125 0.09375q-0.296875 0.03125 -0.71875 0.03125q-0.421875 0 -0.71875 -0.03125q-0.28125 -0.03125 -0.453125 -0.09375q-0.15625 -0.0625 -0.234375 -0.140625q-0.0625 -0.09375 -0.0625 -0.21875l0 -8.453125l-1.3125 0q-0.21875 0 -0.328125 -0.265625q-0.109375 -0.28125 -0.109375 -0.9375q0 -0.328125 0.03125 -0.5625q0.03125 -0.234375 0.078125 -0.375q0.046875 -0.140625 0.140625 -0.1875q0.09375 -0.0625 0.203125 -0.0625l1.296875 0l0 -0.875q0 -1.078125 0.203125 -1.875q0.21875 -0.796875 0.671875 -1.328125q0.453125 -0.546875 1.140625 -0.8125q0.703125 -0.265625 1.65625 -0.265625q0.453125 0 0.859375 0.078125q0.421875 0.078125 0.65625 0.171875q0.234375 0.078125 0.3125 0.15625q0.078125 0.078125 0.125 0.21875q0.0625 0.140625 0.078125 0.375q0.03125 0.234375 0.03125 0.5625zm18.1445 14.4375q0 0.140625 -0.046875 0.234375q-0.046875 0.078125 -0.234375 0.140625q-0.171875 0.0625 -0.515625 0.078125q-0.328125 0.03125 -0.921875 0.03125q-0.484375 0 -0.78125 -0.03125q-0.296875 -0.015625 -0.46875 -0.078125q-0.15625 -0.078125 -0.234375 -0.171875q-0.0625 -0.109375 -0.109375 -0.25l-1.359375 -3.375q-0.25 -0.578125 -0.484375 -1.015625q-0.234375 -0.453125 -0.53125 -0.75q-0.28125 -0.296875 -0.65625 -0.453125q-0.375 -0.15625 -0.859375 -0.15625l-0.96875 0l0 5.78125q0 0.109375 -0.078125 0.203125q-0.078125 0.09375 -0.25 0.15625q-0.171875 0.0625 -0.46875 0.09375q-0.296875 0.046875 -0.75 0.046875q-0.4375 0 -0.75 -0.046875q-0.296875 -0.03125 -0.46875 -0.09375q-0.171875 -0.0625 -0.25 -0.15625q-0.0625 -0.09375 -0.0625 -0.203125l0 -13.765625q0 -0.515625 0.265625 -0.75q0.265625 -0.234375 0.640625 -0.234375l3.9375 0q0.59375 0 0.96875 0.03125q0.390625 0.015625 0.71875 0.0625q0.90625 0.125 1.640625 0.4375q0.734375 0.3125 1.234375 0.828125q0.515625 0.515625 0.78125 1.21875q0.28125 0.6875 0.28125 1.59375q0 0.75 -0.203125 1.390625q-0.1875 0.625 -0.5625 1.125q-0.375 0.484375 -0.9375 0.84375q-0.546875 0.359375 -1.25 0.578125q0.34375 0.171875 0.640625 0.40625q0.296875 0.234375 0.5625 0.578125q0.265625 0.328125 0.5 0.75q0.234375 0.421875 0.453125 0.96875l1.28125 2.984375q0.171875 0.453125 0.234375 0.65625q0.0625 0.203125 0.0625 0.3125zm-3.96875 -10.28125q0 -0.75 -0.34375 -1.265625q-0.34375 -0.515625 -1.109375 -0.734375q-0.234375 -0.046875 -0.546875 -0.078125q-0.296875 -0.046875 -0.8125 -0.046875l-1.390625 0l0 4.296875l1.578125 0q0.65625 0 1.140625 -0.15625q0.5 -0.15625 0.828125 -0.4375q0.328125 -0.296875 0.484375 -0.6875q0.171875 -0.40625 0.171875 -0.890625zm14.964844 10.328125q0 0.15625 -0.125 0.25q-0.109375 0.09375 -0.375 0.140625q-0.25 0.046875 -0.734375 0.046875q-0.53125 0 -0.78125 -0.046875q-0.234375 -0.046875 -0.328125 -0.140625q-0.09375 -0.09375 -0.09375 -0.25l0 -0.84375q-0.65625 0.703125 -1.484375 1.09375q-0.8125 0.375 -1.828125 0.375q-0.828125 0 -1.53125 -0.21875q-0.6875 -0.21875 -1.203125 -0.640625q-0.515625 -0.421875 -0.796875 -1.046875q-0.28125 -0.640625 -0.28125 -1.484375q0 -0.921875 0.359375 -1.59375q0.359375 -0.671875 1.0625 -1.109375q0.71875 -0.4375 1.765625 -0.640625q1.0625 -0.21875 2.453125 -0.21875l1.015625 0l0 -0.640625q0 -0.484375 -0.09375 -0.859375q-0.09375 -0.375 -0.328125 -0.609375q-0.234375 -0.25 -0.609375 -0.359375q-0.375 -0.125 -0.9375 -0.125q-0.75 0 -1.328125 0.171875q-0.578125 0.15625 -1.03125 0.359375q-0.4375 0.1875 -0.734375 0.359375q-0.296875 0.15625 -0.484375 0.15625q-0.125 0 -0.234375 -0.078125q-0.09375 -0.078125 -0.15625 -0.234375q-0.0625 -0.15625 -0.109375 -0.375q-0.03125 -0.21875 -0.03125 -0.484375q0 -0.375 0.0625 -0.578125q0.0625 -0.21875 0.21875 -0.375q0.171875 -0.171875 0.578125 -0.375q0.40625 -0.21875 0.953125 -0.390625q0.5625 -0.171875 1.203125 -0.28125q0.65625 -0.109375 1.34375 -0.109375q1.234375 0 2.109375 0.234375q0.875 0.234375 1.4375 0.734375q0.5625 0.5 0.8125 1.296875q0.265625 0.78125 0.265625 1.859375l0 7.03125zm-2.90625 -4.484375l-1.125 0q-0.703125 0 -1.21875 0.109375q-0.5 0.109375 -0.8125 0.328125q-0.3125 0.203125 -0.46875 0.5q-0.140625 0.296875 -0.140625 0.6875q0 0.65625 0.40625 1.03125q0.421875 0.375 1.15625 0.375q0.625 0 1.140625 -0.3125q0.53125 -0.328125 1.0625 -0.9375l0 -1.78125zm15.753906 4.4375q0 0.140625 -0.0625 0.234375q-0.046875 0.078125 -0.1875 0.140625q-0.140625 0.0625 -0.390625 0.078125q-0.234375 0.03125 -0.59375 0.03125q-0.375 0 -0.609375 -0.03125q-0.234375 -0.015625 -0.375 -0.078125q-0.140625 -0.0625 -0.21875 -0.140625q-0.0625 -0.09375 -0.0625 -0.234375l0 -1.15625q-0.796875 0.875 -1.6875 1.359375q-0.890625 0.46875 -1.96875 0.46875q-1.1875 0 -2.015625 -0.453125q-0.828125 -0.46875 -1.359375 -1.25q-0.515625 -0.796875 -0.75 -1.84375q-0.234375 -1.046875 -0.234375 -2.203125q0 -1.390625 0.296875 -2.5q0.3125 -1.125 0.875 -1.90625q0.578125 -0.78125 1.4375 -1.203125q0.859375 -0.421875 1.96875 -0.421875q0.875 0 1.59375 0.359375q0.71875 0.34375 1.421875 1.046875l0 -5.671875q0 -0.109375 0.0625 -0.203125q0.0625 -0.09375 0.234375 -0.15625q0.171875 -0.0625 0.453125 -0.09375q0.28125 -0.046875 0.703125 -0.046875q0.4375 0 0.71875 0.046875q0.28125 0.03125 0.4375 0.09375q0.171875 0.0625 0.234375 0.15625q0.078125 0.09375 0.078125 0.203125l0 15.375zm-2.921875 -6.984375q-0.640625 -0.796875 -1.21875 -1.21875q-0.578125 -0.421875 -1.21875 -0.421875q-0.5625 0 -0.984375 0.296875q-0.421875 0.28125 -0.671875 0.765625q-0.25 0.484375 -0.375 1.078125q-0.125 0.578125 -0.125 1.203125q0 0.65625 0.109375 1.28125q0.109375 0.625 0.34375 1.109375q0.25 0.484375 0.640625 0.78125q0.40625 0.28125 1.015625 0.28125q0.296875 0 0.578125 -0.078125q0.296875 -0.09375 0.59375 -0.28125q0.296875 -0.203125 0.609375 -0.53125q0.328125 -0.328125 0.703125 -0.796875l0 -3.46875zm8.847656 6.984375q0 0.125 -0.078125 0.21875q-0.0625 0.078125 -0.234375 0.140625q-0.171875 0.0625 -0.453125 0.09375q-0.28125 0.03125 -0.71875 0.03125q-0.4375 0 -0.71875 -0.03125q-0.28125 -0.03125 -0.453125 -0.09375q-0.15625 -0.0625 -0.234375 -0.140625q-0.0625 -0.09375 -0.0625 -0.21875l0 -10.421875q0 -0.125 0.0625 -0.203125q0.078125 -0.09375 0.234375 -0.15625q0.171875 -0.0625 0.453125 -0.09375q0.28125 -0.046875 0.71875 -0.046875q0.4375 0 0.71875 0.046875q0.28125 0.03125 0.453125 0.09375q0.171875 0.0625 0.234375 0.15625q0.078125 0.078125 0.078125 0.203125l0 10.421875zm0.21875 -13.984375q0 0.890625 -0.375 1.234375q-0.359375 0.328125 -1.34375 0.328125q-0.984375 0 -1.34375 -0.328125q-0.34375 -0.328125 -0.34375 -1.171875q0 -0.890625 0.359375 -1.234375q0.359375 -0.359375 1.359375 -0.359375q0.984375 0 1.328125 0.34375q0.359375 0.328125 0.359375 1.1875zm12.628906 13.984375q0 0.125 -0.0625 0.21875q-0.046875 0.078125 -0.203125 0.140625q-0.140625 0.0625 -0.390625 0.09375q-0.234375 0.03125 -0.59375 0.03125q-0.390625 0 -0.640625 -0.03125q-0.234375 -0.03125 -0.375 -0.09375q-0.140625 -0.0625 -0.203125 -0.140625q-0.046875 -0.09375 -0.046875 -0.21875l0 -1.203125q-0.875 0.9375 -1.765625 1.40625q-0.890625 0.46875 -1.859375 0.46875q-1.078125 0 -1.8125 -0.34375q-0.734375 -0.359375 -1.1875 -0.96875q-0.4375 -0.609375 -0.640625 -1.40625q-0.1875 -0.8125 -0.1875 -2.0l0 -6.40625q0 -0.109375 0.0625 -0.1875q0.0625 -0.09375 0.234375 -0.15625q0.171875 -0.0625 0.453125 -0.09375q0.296875 -0.03125 0.71875 -0.03125q0.421875 0 0.703125 0.03125q0.28125 0.03125 0.453125 0.09375q0.171875 0.0625 0.234375 0.15625q0.078125 0.078125 0.078125 0.1875l0 5.90625q0 0.828125 0.109375 1.265625q0.109375 0.421875 0.3125 0.734375q0.21875 0.3125 0.546875 0.484375q0.34375 0.171875 0.796875 0.171875q0.5625 0 1.125 -0.40625q0.5625 -0.421875 1.21875 -1.203125l0 -6.953125q0 -0.109375 0.0625 -0.1875q0.0625 -0.09375 0.234375 -0.15625q0.171875 -0.0625 0.453125 -0.09375q0.28125 -0.03125 0.703125 -0.03125q0.4375 0 0.71875 0.03125q0.28125 0.03125 0.4375 0.09375q0.171875 0.0625 0.234375 0.15625q0.078125 0.078125 0.078125 0.1875l0 10.453125zm10.332031 -2.953125q0 0.890625 -0.34375 1.578125q-0.328125 0.671875 -0.9375 1.140625q-0.609375 0.453125 -1.453125 0.671875q-0.828125 0.234375 -1.796875 0.234375q-0.578125 0 -1.125 -0.09375q-0.53125 -0.078125 -0.953125 -0.203125q-0.421875 -0.140625 -0.703125 -0.28125q-0.28125 -0.140625 -0.40625 -0.265625q-0.125 -0.125 -0.203125 -0.390625q-0.0625 -0.265625 -0.0625 -0.78125q0 -0.34375 0.015625 -0.546875q0.03125 -0.203125 0.078125 -0.328125q0.046875 -0.125 0.109375 -0.15625q0.078125 -0.046875 0.1875 -0.046875q0.125 0 0.375 0.15625q0.25 0.140625 0.625 0.3125q0.375 0.171875 0.875 0.328125q0.5 0.15625 1.125 0.15625q0.40625 0 0.71875 -0.078125q0.3125 -0.09375 0.53125 -0.234375q0.234375 -0.15625 0.34375 -0.390625q0.125 -0.234375 0.125 -0.546875q0 -0.34375 -0.21875 -0.59375q-0.21875 -0.25 -0.578125 -0.4375q-0.359375 -0.1875 -0.8125 -0.34375q-0.4375 -0.171875 -0.921875 -0.375q-0.46875 -0.203125 -0.921875 -0.453125q-0.453125 -0.265625 -0.8125 -0.640625q-0.359375 -0.375 -0.578125 -0.890625q-0.203125 -0.53125 -0.203125 -1.28125q0 -0.75 0.28125 -1.375q0.296875 -0.625 0.84375 -1.0625q0.5625 -0.453125 1.34375 -0.6875q0.796875 -0.25 1.78125 -0.25q0.484375 0 0.953125 0.078125q0.46875 0.0625 0.84375 0.171875q0.375 0.09375 0.625 0.21875q0.265625 0.125 0.375 0.21875q0.109375 0.078125 0.15625 0.171875q0.046875 0.078125 0.0625 0.203125q0.03125 0.125 0.046875 0.3125q0.015625 0.171875 0.015625 0.453125q0 0.3125 -0.015625 0.515625q-0.015625 0.1875 -0.0625 0.3125q-0.03125 0.109375 -0.109375 0.15625q-0.0625 0.046875 -0.15625 0.046875q-0.109375 0 -0.34375 -0.125q-0.21875 -0.125 -0.546875 -0.265625q-0.328125 -0.140625 -0.78125 -0.265625q-0.4375 -0.125 -1.0 -0.125q-0.390625 0 -0.6875 0.09375q-0.296875 0.078125 -0.484375 0.234375q-0.1875 0.140625 -0.28125 0.34375q-0.09375 0.203125 -0.09375 0.4375q0 0.375 0.21875 0.625q0.234375 0.234375 0.59375 0.421875q0.359375 0.1875 0.828125 0.359375q0.46875 0.15625 0.9375 0.359375q0.46875 0.1875 0.9375 0.453125q0.46875 0.25 0.828125 0.625q0.359375 0.375 0.578125 0.90625q0.234375 0.515625 0.234375 1.21875z" fill-rule="nonzero"/><path fill="#000000" fill-opacity="0.0" d="m16.700787 424.78217l0 62.740143" fill-rule="evenodd"/><path stroke="#6aa84f" stroke-width="3.0" stroke-linejoin="round" stroke-linecap="butt" d="m16.700787 442.78217l0 44.740143" fill-rule="evenodd"/><path fill="#6aa84f" stroke="#6aa84f" stroke-width="3.0" stroke-linecap="butt" d="m21.655985 442.78217l-4.9551983 -13.614319l-4.9551964 13.614319z" fill-rule="evenodd"/><path fill="#000000" fill-opacity="0.0" d="m73.40522 486.80942l-57.417324 0" fill-rule="evenodd"/><path stroke="#cc0000" stroke-width="3.0" stroke-linejoin="round" stroke-linecap="butt" d="m55.40522 486.80942l-39.417324 0" fill-rule="evenodd"/><path fill="#cc0000" stroke="#cc0000" stroke-width="3.0" stroke-linecap="butt" d="m55.40522 491.76462l13.614296 -4.9552l-13.614296 -4.9552z" fill-rule="evenodd"/><path fill="#000000" fill-opacity="0.0" d="m18.128609 376.30533l29.354332 0l0 46.86615l-29.354332 0z" fill-rule="evenodd"/><path fill="#6aa84f" d="m26.28313 413.61218q-0.640625 0 -1.15625 -0.359375q-0.515625 -0.34375 -0.515625 -1.0625q0 -0.40625 0.1875 -0.796875q0.1875 -0.390625 0.515625 -0.640625q0.3125 -0.25 0.65625 -0.25q0.25 0 0.515625 0.15625q0.265625 0.171875 0.515625 0.375q0.28125 0.171875 0.5625 0.34375q0.296875 0.171875 0.6875 0.171875q0.671875 0 1.34375 -0.6875q0.671875 -0.671875 1.140625 -1.765625q0.4375 -0.9375 0.625 -2.171875q0.203125 -1.234375 0.203125 -2.625q0 -1.875 -0.21875 -2.984375q-0.21875 -1.109375 -0.5 -1.59375q-0.265625 -0.5 -0.484375 -0.5q-0.203125 0 -0.453125 0.296875q-0.234375 0.28125 -0.453125 0.640625q-0.203125 0.359375 -0.3125 0.578125q-0.046875 0.125 -0.171875 0.328125q-0.125 0.203125 -0.265625 0.203125q-0.0625 0 -0.140625 -0.171875q-0.0625 -0.171875 -0.0625 -0.46875q0 -0.625 0.296875 -1.234375q0.3125 -0.625 0.796875 -1.140625q0.484375 -0.515625 1.03125 -0.828125q0.5625 -0.3125 1.0625 -0.3125q0.65625 0 1.046875 0.453125q0.40625 0.453125 0.703125 1.296875q0.3125 0.96875 0.53125 2.515625q0.234375 1.546875 0.125 3.8125q-0.015625 0.40625 0.078125 0.390625q0.109375 -0.03125 0.265625 -0.328125q0.796875 -1.5 1.078125 -3.328125q0.296875 -1.84375 0.28125 -4.265625q0 -0.171875 0.28125 -0.359375q0.28125 -0.203125 0.46875 -0.203125q0.203125 0 0.53125 0.203125q0.34375 0.1875 0.640625 0.515625q0.296875 0.328125 0.296875 0.75q0 1.40625 -0.8125 3.28125q-0.796875 1.859375 -2.234375 3.96875q-1.421875 2.109375 -3.328125 4.1875q-0.875 0.984375 -1.859375 1.8125q-0.984375 0.828125 -1.890625 1.3125q-0.90625 0.484375 -1.609375 0.484375z" fill-rule="nonzero"/><path fill="#000000" fill-opacity="0.0" d="m81.178474 453.52316l29.354332 0l0 46.86615l-29.354332 0z" fill-rule="evenodd"/><path fill="#cc0000" d="m90.9912 484.59567q-0.5625 0 -0.828125 -0.328125q-0.28125 -0.328125 -0.28125 -0.75q0 -0.34375 0.171875 -0.703125q0.171875 -0.359375 0.421875 -0.59375q0.25 -0.25 0.515625 -0.25q0.125 0 0.25 0.125q0.140625 0.109375 0.234375 0.265625q0.09375 0.109375 0.25 0.21875q0.15625 0.09375 0.375 0.09375q0.203125 0 0.4375 -0.125q0.25 -0.125 0.5 -0.390625q0.203125 -0.234375 0.46875 -0.53125q0.28125 -0.3125 0.5625 -0.625q0.28125 -0.328125 0.484375 -0.59375q0.109375 -0.15625 0.125 -0.28125q0.03125 -0.125 -0.03125 -0.328125l-0.859375 -2.921875q-0.046875 -0.1875 -0.125 -0.28125q-0.078125 -0.109375 -0.203125 -0.109375q-0.25 0 -0.625 0.3125q-0.359375 0.296875 -0.796875 0.828125q-0.046875 0.046875 -0.125 0.109375q-0.078125 0.046875 -0.140625 0.046875q-0.09375 0 -0.171875 -0.0625q-0.078125 -0.078125 -0.078125 -0.21875q0 -0.421875 0.25 -0.9375q0.265625 -0.53125 0.6875 -1.0q0.4375 -0.484375 1.0 -0.78125q0.578125 -0.3125 1.203125 -0.3125q0.5625 0 0.875 0.421875q0.3125 0.421875 0.515625 1.09375l0.65625 2.09375q0.0625 0.265625 0.296875 -0.03125l1.328125 -1.859375q0.65625 -0.921875 1.21875 -1.3125q0.578125 -0.40625 1.09375 -0.40625q0.59375 0 0.984375 0.453125q0.390625 0.4375 0.390625 0.765625q0 0.390625 -0.1875 0.734375q-0.1875 0.34375 -0.46875 0.5625q-0.265625 0.203125 -0.46875 0.203125q-0.265625 0 -0.375 -0.09375q-0.109375 -0.109375 -0.1875 -0.265625q-0.09375 -0.1875 -0.21875 -0.296875q-0.109375 -0.109375 -0.359375 -0.109375q-0.171875 0 -0.453125 0.109375q-0.265625 0.109375 -0.71875 0.59375q-0.3125 0.3125 -0.640625 0.765625q-0.328125 0.453125 -0.671875 1.0q-0.09375 0.203125 -0.171875 0.390625q-0.0625 0.171875 0.03125 0.46875l0.640625 2.3125q0.109375 0.359375 0.21875 0.484375q0.125 0.125 0.28125 0.125q0.171875 0 0.515625 -0.296875q0.359375 -0.3125 0.765625 -1.0q0.140625 -0.171875 0.296875 -0.171875q0.09375 0 0.140625 0.078125q0.0625 0.078125 0.0625 0.265625q0 0.328125 -0.234375 0.84375q-0.234375 0.515625 -0.65625 1.03125q-0.421875 0.5 -0.96875 0.84375q-0.53125 0.328125 -1.125 0.328125q-0.640625 0 -1.0625 -0.453125q-0.40625 -0.46875 -0.546875 -0.984375q-0.09375 -0.4375 -0.203125 -1.015625q-0.109375 -0.578125 -0.234375 -1.015625q-0.046875 -0.125 -0.109375 -0.171875q-0.046875 -0.046875 -0.15625 0.09375q-0.34375 0.46875 -0.65625 0.96875q-0.3125 0.5 -0.6875 0.953125q-0.5625 0.796875 -1.21875 1.21875q-0.65625 0.40625 -1.203125 0.40625z" fill-rule="nonzero"/></g></svg>